<svg width="177" height="178" viewBox="0 0 177 178" fill="none" xmlns="http://www.w3.org/2000/svg">
<circle cx="88.5" cy="67.5" r="66.5" fill="white" stroke="#E7E7E7"/>
<path d="M56 27H61L79.5 53.5L88 65.5L115.5 27H119.5L90.5 68.5L120 110H115.362L101.449 90.5896L88 71.5C86.5067 73.9597 79.4574 83.4243 74.5507 90.5896L60.6377 110H56L85.5 68.5L56 27Z" fill="url(#paint0_linear_28_15)"/>
<path d="M9.657 168.319H9.628C7.17267 168.319 5.133 167.42 3.509 165.622C1.885 163.805 1.073 161.407 1.073 158.43C1.073 155.298 1.90433 152.804 3.567 150.948C5.249 149.073 7.34667 148.135 9.86 148.135C12.354 148.135 14.3937 149.044 15.979 150.861C17.5837 152.659 18.386 155.047 18.386 158.024C18.386 161.291 17.5353 163.824 15.834 165.622C14.1327 167.42 12.0737 168.319 9.657 168.319ZM9.686 167.159H9.715C11.9383 167.159 13.6977 166.289 14.993 164.549C16.2883 162.79 16.936 160.644 16.936 158.111C16.936 157.048 16.7813 156.013 16.472 155.008C16.182 153.983 15.7567 153.036 15.196 152.166C14.6353 151.296 13.8813 150.6 12.934 150.078C12.006 149.556 10.9523 149.295 9.773 149.295C8.18767 149.295 6.83433 149.749 5.713 150.658C4.59167 151.547 3.77967 152.659 3.277 153.993C2.77433 155.327 2.523 156.787 2.523 158.372C2.523 160.731 3.17067 162.79 4.466 164.549C5.76133 166.289 7.50133 167.159 9.686 167.159ZM20.6741 166.985L21.1961 165.854C22.4334 166.705 23.8544 167.13 25.4591 167.13C26.9091 167.13 28.0594 166.763 28.9101 166.028C29.7607 165.274 30.1861 164.288 30.1861 163.07C30.1861 161.987 29.8767 161.098 29.2581 160.402C28.6394 159.687 27.6244 159.058 26.2131 158.517C22.8684 157.318 21.1961 155.52 21.1961 153.123C21.1961 151.692 21.7277 150.513 22.7911 149.585C23.8544 148.638 25.2174 148.164 26.8801 148.164C28.5427 148.164 29.8381 148.464 30.7661 149.063L30.2441 150.252C29.3934 149.633 28.2431 149.324 26.7931 149.324C25.3624 149.324 24.2991 149.691 23.6031 150.426C22.9071 151.161 22.5591 151.982 22.5591 152.891C22.5591 153.935 22.8684 154.786 23.4871 155.443C24.1251 156.081 25.1691 156.68 26.6191 157.241C28.3204 157.937 29.5674 158.71 30.3601 159.561C31.1527 160.412 31.5491 161.533 31.5491 162.925C31.5491 164.433 31.0077 165.709 29.9251 166.753C28.8617 167.778 27.3344 168.29 25.3431 168.29C24.4924 168.29 23.6224 168.164 22.7331 167.913C21.8631 167.662 21.1767 167.352 20.6741 166.985ZM54.187 168H52.592L49.634 163.186C48.5513 161.562 47.691 160.209 47.053 159.126H46.995C46.183 160.557 45.3613 161.92 44.53 163.215L41.717 168H40.122L46.328 158.111L40.383 148.454H41.949L45.11 153.674C45.9413 154.989 46.6083 156.11 47.111 157.038H47.169C47.401 156.593 48.0873 155.472 49.228 153.674L52.505 148.454H54.129L47.894 157.966L54.187 168ZM72.9688 157.125V158.285H65.1678V166.84H73.8968V168H63.7758V148.454H73.4328V149.614H65.1678V157.125H72.9688ZM77.2845 168V147.381H78.6765V168H77.2845ZM102.621 166.202L103.027 167.304C101.712 167.961 99.9528 168.29 97.7488 168.29C96.5308 168.29 95.3805 168.097 94.2978 167.71C93.2151 167.304 92.2291 166.714 91.3398 165.941C90.4698 165.148 89.7738 164.104 89.2518 162.809C88.7491 161.494 88.4978 160.006 88.4978 158.343C88.4978 155.385 89.3871 152.949 91.1658 151.035C92.9638 149.121 95.3805 148.164 98.4158 148.164C100.31 148.164 101.818 148.444 102.94 149.005L102.505 150.165C101.383 149.604 100.03 149.324 98.4448 149.324C95.7961 149.324 93.7178 150.136 92.2098 151.76C90.7018 153.365 89.9478 155.569 89.9478 158.372C89.9478 161.059 90.6728 163.186 92.1228 164.752C93.5921 166.318 95.6221 167.101 98.2128 167.101C99.9141 167.101 101.383 166.801 102.621 166.202ZM114.871 159.242V164.694C114.871 166.067 114.938 167.169 115.074 168H113.798L113.595 165.999H113.537C113.131 166.618 112.541 167.159 111.768 167.623C110.994 168.087 110.095 168.319 109.071 168.319C107.756 168.319 106.741 167.942 106.026 167.188C105.33 166.415 104.982 165.516 104.982 164.491C104.982 162.848 105.697 161.581 107.128 160.692C108.578 159.803 110.695 159.368 113.479 159.387V159.01C113.479 156.265 112.29 154.902 109.912 154.921C108.539 154.921 107.369 155.269 106.403 155.965L105.968 154.95C107.166 154.157 108.529 153.761 110.057 153.761C113.266 153.761 114.871 155.588 114.871 159.242ZM113.479 163.534V160.547C108.781 160.412 106.432 161.649 106.432 164.259C106.432 165.206 106.693 165.931 107.215 166.434C107.756 166.917 108.423 167.159 109.216 167.159C110.298 167.159 111.188 166.888 111.884 166.347C112.58 165.806 113.063 165.148 113.334 164.375C113.43 164.124 113.479 163.843 113.479 163.534ZM119.34 173.742V158.517C119.34 156.738 119.301 155.259 119.224 154.08H120.558L120.645 156.719H120.703C121.805 154.747 123.525 153.761 125.865 153.761C127.643 153.761 129.084 154.428 130.186 155.762C131.288 157.077 131.839 158.759 131.839 160.808C131.839 163.186 131.23 165.032 130.012 166.347C128.794 167.662 127.295 168.319 125.517 168.319C123.351 168.319 121.776 167.459 120.79 165.738H120.732V173.742H119.34ZM120.732 159.793V162.519C120.732 162.944 120.77 163.312 120.848 163.621C121.138 164.684 121.698 165.545 122.53 166.202C123.38 166.84 124.347 167.159 125.43 167.159C126.996 167.159 128.223 166.589 129.113 165.448C130.002 164.288 130.447 162.761 130.447 160.866C130.447 159.223 130.002 157.821 129.113 156.661C128.243 155.501 127.054 154.921 125.546 154.921C124.502 154.921 123.545 155.259 122.675 155.936C121.805 156.593 121.225 157.483 120.935 158.604C120.799 159.184 120.732 159.58 120.732 159.793ZM136.762 168H135.37V154.08H136.762V168ZM136.037 151.296H136.008C135.698 151.296 135.437 151.18 135.225 150.948C135.031 150.716 134.935 150.436 134.935 150.107C134.935 149.778 135.041 149.498 135.254 149.266C135.486 149.015 135.756 148.889 136.066 148.889C136.375 148.889 136.636 149.015 136.849 149.266C137.061 149.498 137.168 149.778 137.168 150.107C137.168 150.436 137.061 150.716 136.849 150.948C136.636 151.18 136.365 151.296 136.037 151.296ZM141.952 151.528L143.344 151.006V154.08H147.317V155.211H143.344V164.259C143.344 166.173 144.021 167.13 145.374 167.13C146.031 167.13 146.563 167.062 146.969 166.927L147.143 167.971C146.582 168.184 145.935 168.29 145.2 168.29C144.137 168.29 143.344 167.971 142.822 167.333C142.242 166.676 141.952 165.564 141.952 163.998V155.211H139.603V154.08H141.952V151.528ZM159.05 159.242V164.694C159.05 166.067 159.118 167.169 159.253 168H157.977L157.774 165.999H157.716C157.31 166.618 156.721 167.159 155.947 167.623C155.174 168.087 154.275 168.319 153.25 168.319C151.936 168.319 150.921 167.942 150.205 167.188C149.509 166.415 149.161 165.516 149.161 164.491C149.161 162.848 149.877 161.581 151.307 160.692C152.757 159.803 154.874 159.368 157.658 159.387V159.01C157.658 156.265 156.469 154.902 154.091 154.921C152.719 154.921 151.549 155.269 150.582 155.965L150.147 154.95C151.346 154.157 152.709 153.761 154.236 153.761C157.446 153.761 159.05 155.588 159.05 159.242ZM157.658 163.534V160.547C152.96 160.412 150.611 161.649 150.611 164.259C150.611 165.206 150.872 165.931 151.394 166.434C151.936 166.917 152.603 167.159 153.395 167.159C154.478 167.159 155.367 166.888 156.063 166.347C156.759 165.806 157.243 165.148 157.513 164.375C157.61 164.124 157.658 163.843 157.658 163.534ZM163.548 168V157.415C163.548 156.178 163.51 155.066 163.432 154.08H164.737L164.824 156.574H164.882C165.269 155.762 165.888 155.095 166.738 154.573C167.608 154.032 168.585 153.761 169.667 153.761C169.996 153.761 170.334 153.8 170.682 153.877C171.05 153.935 171.475 154.09 171.958 154.341C172.442 154.592 172.857 154.921 173.205 155.327C173.573 155.714 173.882 156.284 174.133 157.038C174.404 157.792 174.539 158.662 174.539 159.648V168H173.147V159.764C173.147 158.353 172.838 157.193 172.219 156.284C171.601 155.375 170.624 154.921 169.29 154.921C168.324 154.921 167.454 155.23 166.68 155.849C165.907 156.448 165.385 157.212 165.114 158.14C164.998 158.565 164.94 158.971 164.94 159.358V168H163.548Z" fill="black"/>
<defs>
<linearGradient id="paint0_linear_28_15" x1="88" y1="35" x2="88" y2="110" gradientUnits="userSpaceOnUse">
<stop stop-color="#6BC0EE"/>
<stop offset="0.522047" stop-color="#9E798C"/>
<stop offset="1" stop-color="#E75733"/>
</linearGradient>
</defs>
</svg>
