<?xml version="1.0" encoding="UTF-8" standalone="no"?>
<!-- Generator: Adobe Illustrator 22.1.0, SVG Export Plug-In . SVG Version: 6.00 Build 0)  -->

<svg
   version="1.1"
   id="Layer_1"
   x="0px"
   y="0px"
   viewBox="0 0 297.21744 228.13421"
   xml:space="preserve"
   sodipodi:docname="MacOS8.svg"
   width="297.21744"
   height="228.1342"
   inkscape:export-filename="E:\inkscape\MacOS7.png"
   inkscape:export-xdpi="96"
   inkscape:export-ydpi="96"
   inkscape:version="1.1 (c68e22c387, 2021-05-23)"
   xmlns:inkscape="http://www.inkscape.org/namespaces/inkscape"
   xmlns:sodipodi="http://sodipodi.sourceforge.net/DTD/sodipodi-0.dtd"
   xmlns="http://www.w3.org/2000/svg"
   xmlns:svg="http://www.w3.org/2000/svg"
   xmlns:rdf="http://www.w3.org/1999/02/22-rdf-syntax-ns#"
   xmlns:cc="http://creativecommons.org/ns#"
   xmlns:dc="http://purl.org/dc/elements/1.1/"><metadata
   id="metadata33"><rdf:RDF><cc:Work
       rdf:about=""><dc:format>image/svg+xml</dc:format><dc:type
         rdf:resource="http://purl.org/dc/dcmitype/StillImage" /></cc:Work></rdf:RDF></metadata><defs
   id="defs31" /><sodipodi:namedview
   pagecolor="#ffffff"
   bordercolor="#666666"
   borderopacity="1"
   objecttolerance="10"
   gridtolerance="10"
   guidetolerance="10"
   inkscape:pageopacity="0"
   inkscape:pageshadow="2"
   inkscape:window-width="1920"
   inkscape:window-height="1046"
   id="namedview29"
   showgrid="false"
   inkscape:zoom="1.9407086"
   inkscape:cx="153.03688"
   inkscape:cy="139.63972"
   inkscape:window-x="-11"
   inkscape:window-y="-11"
   inkscape:window-maximized="1"
   inkscape:current-layer="layer1"
   inkscape:pagecheckerboard="true" />
<style
   type="text/css"
   id="style2">
	.st0{fill:#576ECD;}
	.st1{fill:#4D66CC;}
	.st2{fill:#89A1D4;}
	.st3{fill:none;stroke:#000000;stroke-width:6.3;}
	.st4{fill:none;stroke:#09098F;stroke-width:6.3;}
</style>












<g
   inkscape:groupmode="layer"
   id="layer1"
   inkscape:label="Layer 1"
   style="display:inline;opacity:1"
   transform="translate(-11.910497,5.7746056)"><path
   inkscape:connector-curvature="0"
   class="st0"
   d="m 217.2105,187.75958 c 0,15.8 -9.89999,32.90001 -27.8,32.90001 -18.39999,0 -27.89999,-17.3 -27.89999,-32.90001 0,-15.79999 10,-33 27.89999,-33 18.3,0 27.8,17.60001 27.8,33 z m -8.1,-0.2 c 0,-11.59999 -3.29999,-30.39999 -19.79999,-30.39999 -16.3,0 -19.70001,18.7 -19.70001,30.39999 0,4.40001 0.40001,8.40001 1.20001,12 1.89999,8.7 7.39999,18.2 18.5,18.2 16.29999,0 19.79999,-18.7 19.79999,-30.2 z"
   id="path4"
   style="fill:#576ecd" /><path
   inkscape:connector-curvature="0"
   d="m 99.8105,214.25958 c -3.4,4.5 -8.6,6.8 -11.9,6.70001 -3.9,0.29999 -9.4,-2.40001 -9.4,-8 -0.2,-9.70001 13.3,-14.8 21.5,-20.20001 v -8.09999 c 0.10001,-3 0.10001,-5.60001 -1,-7.10001 -2.3,-3.3 -9.1,-1.89999 -11.5,2 -1.1,1.3 -3.5,12.5 -8.1,8.7 -1.2,-2 -0.7,-4.39999 2,-7.2 4.8,-5 9.4,-8 16,-7.7 9.2,0.8 9.6,9.3 9.3,15.39999 0,4.3 0,8.10001 -0.1,11.40001 l -0.1,10.9 c 1.2,7.3 4.7,3.8 6.3,3.3 l -0.2,2.39999 c -3.8,4.30001 -10.4,5.90002 -12.8,-2.49999 z m 0.1,-18.79999 c -7.3,2.89999 -14.7,7.79999 -14.7,15.29999 0,8.60001 9.4,6.40001 14.6,-0.5 z"
   id="path6" /><path
   inkscape:connector-curvature="0"
   d="m 133.6105,221.35959 c -12.9,-0.2 -18.8,-14.10001 -18.8,-24.39999 0,-10.3 6.6,-23.60001 20.1,-23.60001 6.8,0 12.10001,2.89999 12.10001,8.60001 0,5 -1.60001,5.59999 -3.10001,3.89999 -2.59999,-4.3 -4.3,-10.10001 -10.4,-10.10001 -9.6,0 -12.3,14.90001 -12.5,20.8 -0.3,7.2 4.3,20.60001 14.10001,20.60001 5.8,0 8.1,-0.8 11.49999,-4.7 l 1.5,1.7 c -2.7,3.89999 -8.5,7.2 -14.5,7.2 z"
   id="path8" /><path
   inkscape:connector-curvature="0"
   d="m 75.2105,218.95959 h -20.4 v -3.20001 c 0.8,0 1.8,-0.1 3.1,-0.29999 3.1,-0.40001 3.2,-2.10001 3.2,-5.40001 l -0.2,-43.89999 h -0.6 l -17.7,51.8 h -1.100003 l -17.2,-52.8 h -0.4 l -1.9,44.59999 c 0,1.8 0.8,3.20001 1.6,4.10001 0.5,0.60001 1.6,1.2 3.2,1.7 1.7,0.60001 2.8,1.10001 3.3,1.2 v 2.20001 h -18.2 v -3.20001 c 1.1,-0.1 2.2,-0.29999 3.4,-0.59999 1.2,-0.3 2.1,-0.8 2.7,-1.5 0.9,-0.8 1,-2.5 1.4,-4.2 l 1.3,-48.40001 c -0.8,-0.8 -1.7,-1.39999 -2.8,-1.8 -1,-0.39999 -2.1,-0.59999 -3.2,-0.59999 v -2.5 h 13.4 l 16.200003,47.09999 16.3,-47 13.4,-0.1 v 3.09999 c -0.6,0.10001 -1.5,0.2 -2.5,0.40001 -1.1,0.29999 -1.8,0.5 -2.3,0.7 -1.8,0.8 -1.6,2.7 -1.6,4.5 l 0.6,45.2 c 0,4.3 3.4,6.2 7,6.3 v 2.59999 z"
   id="path10" /><path
   inkscape:connector-curvature="0"
   class="st0"
   d="m 255.1105,195.15959 c 1.90001,6.7 0.60001,15.09999 -4.29999,19.8 -9,9 -23,7.29999 -29.70001,-1 l -0.2,-12.3 h 2.90001 c -0.5,8.8 6.7,18.5 15.29999,16.3 3.20001,-0.8 8.5,-4.70001 9.5,-7.90001 1.8,-6.3 -0.39999,-13.09999 -5.89999,-16.89999 -1.5,-1 -3.7,-2.40001 -5.7,-3.40001 -2,-0.89999 -3.8,-1.79999 -5.2,-2.59999 -2.90001,-1.60001 -5.20001,-3.7 -6.8,-6.3 -2.90001,-4.8 -3.7,-10.10001 -1.60001,-15.5 0.8,-2.10001 1.90001,-3.90001 3.40001,-5.60001 1.39999,-1.5 3,-2.7 4.89999,-3.59999 6.10001,-2.70001 15.89999,-2.10001 20.7,2.7 l 0.2,10.39999 h -1.79999 c -1.90001,-7.89999 -5.40001,-12.5 -13.60001,-12.09999 -2.3,0.1 -5,1.7 -6.7,3.5 -1.60001,1.79999 -2.2,4.79999 -2.2,7.39999 0,4.60001 3.09999,9.10001 6.7,11.10001 4.59999,2.8 9.7,4.5 14.2,7.7 2.7,2 4.9,4.8 5.9,8.3 z"
   id="path12"
   style="fill:#576ecd" /><path
   inkscape:connector-curvature="0"
   class="st1"
   d="m 99.0105,12.559576 h 76.7 l -14.5,30.7 -6.2,29.1 21.80001,2.1 3.39999,44.800004 h -81.2 z"
   id="path14"
   style="fill:#4d66cc" /><path
   inkscape:connector-curvature="0"
   class="st2"
   d="m 175.51051,12.559576 h 60.7 V 119.25958 h -56.5 l -2.2,-45.900004 -22.8,0.39999 5.2,-30.6 z"
   id="path16"
   style="fill:#89a1d4" /><path
   inkscape:connector-curvature="0"
   class="st3"
   d="m 178.51051,96.259576 c 15.09999,-0.3 26.3,-3.8 35.2,-9.1"
   id="path18"
   style="fill:none;stroke:#000000;stroke-width:6.3" /><path
   inkscape:connector-curvature="0"
   class="st4"
   d="m 121.5105,86.859586 c 17.10001,8.8 34.9,10.8 53.7,9.6"
   id="path20"
   style="fill:none;stroke:#09098f;stroke-width:6.3" /><path
   inkscape:connector-curvature="0"
   class="st4"
   d="m 136.5105,30.259576 v 16.1"
   id="path22"
   style="fill:none;stroke:#09098f;stroke-width:6.3" /><path
   inkscape:connector-curvature="0"
   class="st3"
   d="m 194.9105,30.259576 v 16.1"
   id="path24"
   style="fill:none;stroke:#000000;stroke-width:6.3" /><path
   inkscape:connector-curvature="0"
   class="st3"
   d="m 188.31051,-3.7404239 c -17,20.0999999 -31.7,46.3999999 -33.30001,77.1000099 h 25.00001 c -6.3,20.89999 -2.90001,44.300004 6.7,63.200004"
   id="path26"
   style="fill:none;stroke:#000000;stroke-width:6.3" />

<g
   aria-label="8"
   id="text2308"
   style="font-size:97.9575px;line-height:1.25;font-family:'Apple Garamond Light';-inkscape-font-specification:'Apple Garamond Light, ';display:inline;fill:#cc0000;stroke-width:1.53059"
   transform="translate(11.910497,-5.7746056)"><path
     d="m 290.04611,176.78389 q 0,3.03668 -1.07753,5.38766 -0.97957,2.25302 -2.54689,3.9183 -1.46937,1.56732 -3.13464,2.44893 -1.56732,0.78366 -2.74281,0.78366 -0.58775,0 -1.66528,-0.29387 -1.07753,-0.39183 -2.35098,-1.07753 -1.27345,-0.6857 -2.54689,-1.46936 -1.17549,-0.88162 -2.15507,-1.95915 -3.2326,-3.52647 -3.2326,-8.62026 0,-2.64485 0.78366,-4.79992 0.78366,-2.25302 2.15507,-3.82034 1.3714,-1.66528 3.2326,-2.5469 1.86119,-0.97957 4.01625,-0.97957 2.35098,0 4.40809,0.97957 2.05711,0.97958 3.52647,2.74281 1.56732,1.66528 2.44894,4.11422 0.88161,2.35098 0.88161,5.19175 z m -2.35098,11.16715 q 3.52647,-2.44894 5.28971,-4.99583 1.76323,-2.64486 1.76323,-6.56315 0,-3.13464 -1.17549,-5.7795 -1.07753,-2.64485 -3.03668,-4.604 -1.95915,-1.95915 -4.604,-3.03668 -2.64485,-1.17549 -5.77949,-1.17549 -3.52647,0 -6.56315,1.3714 -2.93873,1.27345 -5.09379,3.62443 -2.15507,2.35098 -3.42852,5.48562 -1.17549,3.13464 -1.17549,6.75907 0,4.604 1.8612,8.03251 1.86119,3.33056 5.09379,4.99583 l 2.0571,1.07754 q 0.48979,0.29387 0.48979,0.88161 0,0.29388 -1.3714,1.07754 l -1.8612,1.07753 q -8.03251,4.70196 -8.03251,13.90996 0,3.42852 1.17549,6.4652 1.27345,3.03668 3.42851,5.2897 2.25302,2.25303 5.28971,3.62443 3.03668,1.37141 6.56315,1.37141 3.62442,0 6.85702,-1.56732 3.2326,-1.46937 5.58358,-4.11422 2.44894,-2.64485 3.82034,-6.17132 1.37141,-3.52647 1.37141,-7.44477 0,-5.09379 -1.95915,-8.81618 -1.95915,-3.72238 -5.68154,-5.87745 l -2.84077,-1.56732 q -1.17549,-0.6857 -1.17549,-0.88161 0,-0.29388 0.78366,-0.88162 z m -10.08962,6.75907 q 0.68571,0 1.95915,0.48978 1.27345,0.48979 2.74281,1.37141 1.46936,0.88162 2.93873,2.05711 1.46936,1.17549 2.54689,2.54689 3.03668,3.9183 3.03668,9.50188 0,3.13464 -0.97957,5.68153 -0.88162,2.5469 -2.5469,4.40809 -1.66527,1.86119 -3.9183,2.93873 -2.15506,0.97957 -4.79991,0.97957 -4.89788,0 -8.13047,-3.82034 -3.2326,-3.82034 -3.2326,-10.28554 0,-3.62443 1.17549,-6.56315 1.17549,-2.93873 2.74281,-4.99583 1.66528,-2.05711 3.42851,-3.13464 1.86119,-1.17549 3.03668,-1.17549 z"
     id="path3421" /></g></g></svg>
