<?xml version="1.0" encoding="UTF-8" standalone="no"?>
<!-- Generator: Adobe Illustrator 22.1.0, SVG Export Plug-In . SVG Version: 6.00 Build 0)  -->

<svg
   version="1.1"
   id="Layer_1"
   x="0px"
   y="0px"
   viewBox="0 0 301.08329 234.12482"
   xml:space="preserve"
   sodipodi:docname="MacOS9.svg"
   width="301.08328"
   height="234.12482"
   inkscape:export-filename="E:\inkscape\MacOS7.png"
   inkscape:export-xdpi="96"
   inkscape:export-ydpi="96"
   inkscape:version="1.1 (c68e22c387, 2021-05-23)"
   xmlns:inkscape="http://www.inkscape.org/namespaces/inkscape"
   xmlns:sodipodi="http://sodipodi.sourceforge.net/DTD/sodipodi-0.dtd"
   xmlns="http://www.w3.org/2000/svg"
   xmlns:svg="http://www.w3.org/2000/svg"
   xmlns:rdf="http://www.w3.org/1999/02/22-rdf-syntax-ns#"
   xmlns:cc="http://creativecommons.org/ns#"
   xmlns:dc="http://purl.org/dc/elements/1.1/"><metadata
   id="metadata33"><rdf:RDF><cc:Work
       rdf:about=""><dc:format>image/svg+xml</dc:format><dc:type
         rdf:resource="http://purl.org/dc/dcmitype/StillImage" /></cc:Work></rdf:RDF></metadata><defs
   id="defs31" /><sodipodi:namedview
   pagecolor="#ffffff"
   bordercolor="#666666"
   borderopacity="1"
   objecttolerance="10"
   gridtolerance="10"
   guidetolerance="10"
   inkscape:pageopacity="0"
   inkscape:pageshadow="2"
   inkscape:window-width="1920"
   inkscape:window-height="1046"
   id="namedview29"
   showgrid="false"
   inkscape:zoom="14.53"
   inkscape:cx="315.82932"
   inkscape:cy="191.25946"
   inkscape:window-x="-11"
   inkscape:window-y="-11"
   inkscape:window-maximized="1"
   inkscape:current-layer="layer1"
   inkscape:pagecheckerboard="true" />
<style
   type="text/css"
   id="style2">
	.st0{fill:#576ECD;}
	.st1{fill:#4D66CC;}
	.st2{fill:#89A1D4;}
	.st3{fill:none;stroke:#000000;stroke-width:6.3;}
	.st4{fill:none;stroke:#09098F;stroke-width:6.3;}
</style>












<g
   inkscape:groupmode="layer"
   id="layer1"
   inkscape:label="Layer 1"
   style="display:inline;opacity:1"
   transform="translate(-11.910497,5.7746056)"><path
   inkscape:connector-curvature="0"
   class="st0"
   d="m 217.2105,187.75958 c 0,15.8 -9.89999,32.90001 -27.8,32.90001 -18.39999,0 -27.89999,-17.3 -27.89999,-32.90001 0,-15.79999 10,-33 27.89999,-33 18.3,0 27.8,17.60001 27.8,33 z m -8.1,-0.2 c 0,-11.59999 -3.29999,-30.39999 -19.79999,-30.39999 -16.3,0 -19.70001,18.7 -19.70001,30.39999 0,4.40001 0.40001,8.40001 1.20001,12 1.89999,8.7 7.39999,18.2 18.5,18.2 16.29999,0 19.79999,-18.7 19.79999,-30.2 z"
   id="path4"
   style="fill:#576ecd" /><path
   inkscape:connector-curvature="0"
   d="m 99.8105,214.25958 c -3.4,4.5 -8.6,6.8 -11.9,6.70001 -3.9,0.29999 -9.4,-2.40001 -9.4,-8 -0.2,-9.70001 13.3,-14.8 21.5,-20.20001 v -8.09999 c 0.10001,-3 0.10001,-5.60001 -1,-7.10001 -2.3,-3.3 -9.1,-1.89999 -11.5,2 -1.1,1.3 -3.5,12.5 -8.1,8.7 -1.2,-2 -0.7,-4.39999 2,-7.2 4.8,-5 9.4,-8 16,-7.7 9.2,0.8 9.6,9.3 9.3,15.39999 0,4.3 0,8.10001 -0.1,11.40001 l -0.1,10.9 c 1.2,7.3 4.7,3.8 6.3,3.3 l -0.2,2.39999 c -3.8,4.30001 -10.4,5.90002 -12.8,-2.49999 z m 0.1,-18.79999 c -7.3,2.89999 -14.7,7.79999 -14.7,15.29999 0,8.60001 9.4,6.40001 14.6,-0.5 z"
   id="path6" /><path
   inkscape:connector-curvature="0"
   d="m 133.6105,221.35959 c -12.9,-0.2 -18.8,-14.10001 -18.8,-24.39999 0,-10.3 6.6,-23.60001 20.1,-23.60001 6.8,0 12.10001,2.89999 12.10001,8.60001 0,5 -1.60001,5.59999 -3.10001,3.89999 -2.59999,-4.3 -4.3,-10.10001 -10.4,-10.10001 -9.6,0 -12.3,14.90001 -12.5,20.8 -0.3,7.2 4.3,20.60001 14.10001,20.60001 5.8,0 8.1,-0.8 11.49999,-4.7 l 1.5,1.7 c -2.7,3.89999 -8.5,7.2 -14.5,7.2 z"
   id="path8" /><path
   inkscape:connector-curvature="0"
   d="m 75.2105,218.95959 h -20.4 v -3.20001 c 0.8,0 1.8,-0.1 3.1,-0.29999 3.1,-0.40001 3.2,-2.10001 3.2,-5.40001 l -0.2,-43.89999 h -0.6 l -17.7,51.8 h -1.100003 l -17.2,-52.8 h -0.4 l -1.9,44.59999 c 0,1.8 0.8,3.20001 1.6,4.10001 0.5,0.60001 1.6,1.2 3.2,1.7 1.7,0.60001 2.8,1.10001 3.3,1.2 v 2.20001 h -18.2 v -3.20001 c 1.1,-0.1 2.2,-0.29999 3.4,-0.59999 1.2,-0.3 2.1,-0.8 2.7,-1.5 0.9,-0.8 1,-2.5 1.4,-4.2 l 1.3,-48.40001 c -0.8,-0.8 -1.7,-1.39999 -2.8,-1.8 -1,-0.39999 -2.1,-0.59999 -3.2,-0.59999 v -2.5 h 13.4 l 16.200003,47.09999 16.3,-47 13.4,-0.1 v 3.09999 c -0.6,0.10001 -1.5,0.2 -2.5,0.40001 -1.1,0.29999 -1.8,0.5 -2.3,0.7 -1.8,0.8 -1.6,2.7 -1.6,4.5 l 0.6,45.2 c 0,4.3 3.4,6.2 7,6.3 v 2.59999 z"
   id="path10" /><path
   inkscape:connector-curvature="0"
   class="st0"
   d="m 255.1105,195.15959 c 1.90001,6.7 0.60001,15.09999 -4.29999,19.8 -9,9 -23,7.29999 -29.70001,-1 l -0.2,-12.3 h 2.90001 c -0.5,8.8 6.7,18.5 15.29999,16.3 3.20001,-0.8 8.5,-4.70001 9.5,-7.90001 1.8,-6.3 -0.39999,-13.09999 -5.89999,-16.89999 -1.5,-1 -3.7,-2.40001 -5.7,-3.40001 -2,-0.89999 -3.8,-1.79999 -5.2,-2.59999 -2.90001,-1.60001 -5.20001,-3.7 -6.8,-6.3 -2.90001,-4.8 -3.7,-10.10001 -1.60001,-15.5 0.8,-2.10001 1.90001,-3.90001 3.40001,-5.60001 1.39999,-1.5 3,-2.7 4.89999,-3.59999 6.10001,-2.70001 15.89999,-2.10001 20.7,2.7 l 0.2,10.39999 h -1.79999 c -1.90001,-7.89999 -5.40001,-12.5 -13.60001,-12.09999 -2.3,0.1 -5,1.7 -6.7,3.5 -1.60001,1.79999 -2.2,4.79999 -2.2,7.39999 0,4.60001 3.09999,9.10001 6.7,11.10001 4.59999,2.8 9.7,4.5 14.2,7.7 2.7,2 4.9,4.8 5.9,8.3 z"
   id="path12"
   style="fill:#576ecd" /><path
   inkscape:connector-curvature="0"
   class="st1"
   d="m 99.0105,12.559576 h 76.7 l -14.5,30.7 -6.2,29.1 21.80001,2.1 3.39999,44.800004 h -81.2 z"
   id="path14"
   style="fill:#4d66cc" /><path
   inkscape:connector-curvature="0"
   class="st2"
   d="m 175.51051,12.559576 h 60.7 V 119.25958 h -56.5 l -2.2,-45.900004 -22.8,0.39999 5.2,-30.6 z"
   id="path16"
   style="fill:#89a1d4" /><path
   inkscape:connector-curvature="0"
   class="st3"
   d="m 178.51051,96.259576 c 15.09999,-0.3 26.3,-3.8 35.2,-9.1"
   id="path18"
   style="fill:none;stroke:#000000;stroke-width:6.3" /><path
   inkscape:connector-curvature="0"
   class="st4"
   d="m 121.5105,86.859586 c 17.10001,8.8 34.9,10.8 53.7,9.6"
   id="path20"
   style="fill:none;stroke:#09098f;stroke-width:6.3" /><path
   inkscape:connector-curvature="0"
   class="st4"
   d="m 136.5105,30.259576 v 16.1"
   id="path22"
   style="fill:none;stroke:#09098f;stroke-width:6.3" /><path
   inkscape:connector-curvature="0"
   class="st3"
   d="m 194.9105,30.259576 v 16.1"
   id="path24"
   style="fill:none;stroke:#000000;stroke-width:6.3" /><path
   inkscape:connector-curvature="0"
   class="st3"
   d="m 188.31051,-3.7404239 c -17,20.0999999 -31.7,46.3999999 -33.30001,77.1000099 h 25.00001 c -6.3,20.89999 -2.90001,44.300004 6.7,63.200004"
   id="path26"
   style="fill:none;stroke:#000000;stroke-width:6.3" />
<g
   aria-label="9"
   id="text1432"
   style="font-size:97.7188px;line-height:1.25;font-family:'Apple Garamond Light';-inkscape-font-specification:'Apple Garamond Light, ';display:inline;fill:#ff6600;stroke-width:1.83222"
   transform="translate(11.910497,-5.7746056)"><path
     d="m 265.97941,183.19051 q 0,4.29963 0.97718,7.71978 1.07491,3.42016 2.93157,5.86313 1.95437,2.44297 4.59278,3.81104 2.63841,1.27034 5.76541,1.27034 1.46578,0 2.93157,-0.48859 1.46578,-0.4886 2.54068,-1.17263 1.17263,-0.78175 1.85666,-1.5635 0.78175,-0.87947 0.78175,-1.5635 0,-0.97719 -0.78175,-0.97719 -0.29315,0 -1.5635,0.97719 -1.17262,0.97719 -3.90875,0.97719 -4.49507,0 -7.42663,-4.59279 -2.93156,-4.59278 -2.93156,-12.60572 0,-3.71332 0.78175,-6.7426 0.87947,-3.127 2.24753,-5.27681 1.36806,-2.14982 3.22472,-3.32244 1.85666,-1.17263 3.90875,-1.17263 2.24753,0 4.39735,1.66122 2.24753,1.5635 3.90875,4.49506 1.75894,2.93157 2.83385,7.03576 1.0749,4.10419 1.0749,9.08785 0,9.8696 -4.20191,19.34832 -4.10419,9.38101 -11.82397,17.00307 -2.54069,2.54069 -4.6905,3.90875 -2.0521,1.46579 -3.51788,2.34526 -1.46578,0.87946 -2.34525,1.36806 -0.78175,0.58631 -0.78175,1.27034 0,1.27035 1.0749,1.27035 0.58632,0 1.95438,-0.58632 1.46578,-0.58631 3.42016,-1.75893 1.95437,-1.17263 4.39734,-2.93157 2.44297,-1.75894 4.98366,-4.20191 17.49167,-16.31904 17.49167,-36.05823 0,-5.96085 -1.5635,-10.74907 -1.5635,-4.78822 -4.00647,-8.11066 -2.44297,-3.42016 -5.47226,-5.27682 -3.02928,-1.85666 -5.96084,-1.85666 -3.51788,0 -6.64488,1.66122 -3.127,1.5635 -5.47225,4.49507 -2.24754,2.83384 -3.6156,6.84031 -1.36806,3.90876 -1.36806,8.59926 z"
     id="path2485" /></g></g></svg>
