<?xml version="1.0" encoding="UTF-8" standalone="no"?>
<!-- Created with Inkscape (http://www.inkscape.org/) -->

<svg
   width="194mm"
   height="130mm"
   viewBox="0 0 194 130"
   version="1.1"
   id="svg5"
   inkscape:version="1.1 (c68e22c387, 2021-05-23)"
   sodipodi:docname="Android-eclair-logo.svg"
   xmlns:inkscape="http://www.inkscape.org/namespaces/inkscape"
   xmlns:sodipodi="http://sodipodi.sourceforge.net/DTD/sodipodi-0.dtd"
   xmlns="http://www.w3.org/2000/svg"
   xmlns:svg="http://www.w3.org/2000/svg">
  <sodipodi:namedview
     id="namedview7"
     pagecolor="#ffffff"
     bordercolor="#666666"
     borderopacity="1.0"
     inkscape:pageshadow="2"
     inkscape:pageopacity="0.0"
     inkscape:pagecheckerboard="0"
     inkscape:document-units="mm"
     showgrid="false"
     inkscape:zoom="1.0809568"
     inkscape:cx="351.07786"
     inkscape:cy="291.87105"
     inkscape:window-width="1920"
     inkscape:window-height="1017"
     inkscape:window-x="1912"
     inkscape:window-y="-8"
     inkscape:window-maximized="1"
     inkscape:current-layer="g39085"
     showguides="false">
    <sodipodi:guide
       position="131.9298,164.75701"
       orientation="0,-1"
       id="guide859" />
  </sodipodi:namedview>
  <defs
     id="defs2">
    <filter
       inkscape:collect="always"
       style="color-interpolation-filters:sRGB"
       id="filter37304"
       x="-0.039709743"
       y="-0.13261354"
       width="1.0794195"
       height="1.2652271">
      <feGaussianBlur
         inkscape:collect="always"
         stdDeviation="2.9605656"
         id="feGaussianBlur37306" />
    </filter>
  </defs>
  <g
     inkscape:label="Capa 1"
     inkscape:groupmode="layer"
     id="layer1">
    <g
       id="g39085"
       transform="translate(-6.8534965,-6.1191933)">
      <rect
         style="opacity:0.873541;mix-blend-mode:normal;fill:#000000;fill-opacity:1;fill-rule:evenodd;stroke:none;stroke-width:1.01614;stroke-linecap:round;paint-order:markers fill stroke;filter:url(#filter37304);stop-color:#000000"
         id="rect37028"
         width="178.93234"
         height="53.579426"
         x="14.429374"
         y="75.393654"
         ry="26.789713" />
      <g
         id="g37004">
        <g
           id="rect3981-7-7-15">
          <path
             style="color:#000000;fill:#ffffff;-inkscape-stroke:none;paint-order:markers stroke fill"
             d="m 159.10547,38.841797 c -0.98442,-0.118981 -2.02064,0.69691 -2.14063,1.677734 l -0.50781,4.148438 c -5.6018,-0.38299 -11.14816,1.735651 -14.5625,6.380859 l -0.01,-0.0078 -0.0449,0.0625 -0.1289,0.175781 -0.42969,0.591797 c -0.0547,-0.455387 -0.13423,-0.909216 -0.30859,-1.335938 l 0.30078,-0.15039 -1.25391,-1.361329 v -0.002 c -0.22974,-0.249467 -0.48879,-0.481482 -0.77539,-0.689453 -2.28088,-1.654781 -5.50556,-1.140031 -7.16016,1.140625 l -9.1289,12.583985 c -1.65459,2.280611 -1.14193,5.503635 1.13867,7.158203 1.19688,0.868329 2.6429,1.107645 3.99609,0.839843 l -1.1914,1.642579 c -1.74814,2.409582 -1.20668,5.818109 1.20312,7.566406 l 1.03321,0.75 -4.01563,5.535156 c -1.6546,2.280621 -1.14193,5.503632 1.13867,7.158203 2.28062,1.654576 5.50559,1.141956 7.16016,-1.138672 l 4.01562,-5.535156 1.76953,1.285156 -4.01562,5.533203 c -1.65476,2.280899 -1.14197,5.505554 1.13867,7.160163 2.28061,1.65457 5.50363,1.14194 7.1582,-1.138678 l 4.01563,-5.535156 1.0332,0.75 c 2.40987,1.748364 5.81824,1.204486 7.56641,-1.205079 l 1.19141,-1.642578 c 0.16547,1.369653 0.84212,2.670687 2.03906,3.539063 2.28061,1.654583 5.50558,1.141938 7.16015,-1.138672 l 9.12891,-12.583984 c 1.44794,-1.995803 1.25531,-4.710192 -0.36328,-6.46875 v -0.002 c -0.22971,-0.249471 -0.48919,-0.479817 -0.77539,-0.6875 -1.19597,-0.867676 -2.64171,-1.108425 -3.99414,-0.841796 l 0.35351,-0.492188 0.20118,-0.277344 0.0449,-0.06055 -0.01,-0.0078 c 3.35651,-4.687183 3.64919,-10.615868 1.54688,-15.822266 L 176.4082,54.625 c 0.49045,-0.229165 0.80272,-0.705849 0.95703,-1.236328 l 0.0517,-0.832933 c -0.0649,-0.497596 -0.31731,-0.872145 -0.31731,-0.872145 l -0.006,-0.0078 -0.002,-0.002 c -0.0997,-0.124189 -0.22095,-0.242532 -0.34961,-0.337891 -0.53405,-0.396254 -1.32324,-0.493294 -1.96094,-0.195312 l -3.94141,1.839844 c -1.21588,-1.799456 -2.69325,-3.473605 -4.56836,-4.833985 -1.87532,-1.360548 -3.92737,-2.244345 -6.01562,-2.841797 l 0.52734,-4.322265 c 0.0833,-0.693477 -0.25404,-1.414499 -0.79297,-1.798828 -0.25859,-0.184219 -0.58945,-0.305773 -0.88281,-0.341797 z m -5.4707,8.523437 c 1.25953,-0.131644 2.55272,-0.103029 3.84765,0.08984 l 0.48047,0.07031 0.48242,0.103515 c 2.14276,0.45702 4.25999,1.373612 6.18946,2.773438 1.92947,1.399822 3.45723,3.126318 4.55664,5.021484 l 0.23828,0.412109 0.22656,0.451172 c 2.12305,4.24888 2.05671,9.105271 -0.2207,13.117188 L 145.08008,51.734375 c 2.25066,-2.469632 5.24508,-4.023227 8.55469,-4.369141 z m 0.54296,1.019532 c -0.70454,0.112198 -1.36553,0.492577 -1.81445,1.111328 -0.89821,1.23805 -0.61766,2.987461 0.61914,3.884765 1.23719,0.897587 2.98702,0.620189 3.88477,-0.617187 0.78607,-1.083499 0.67795,-2.549904 -0.19727,-3.511719 -0.1255,-0.137913 -0.26667,-0.263753 -0.41992,-0.375 h -0.002 c -0.61864,-0.44812 -1.3664,-0.604286 -2.07032,-0.492187 z m -18.3164,1.761718 c 0.58313,-0.09286 1.20406,0.04816 1.74609,0.441407 0.13401,0.09724 0.25359,0.205269 0.36133,0.322265 0.74297,0.807219 0.84662,1.996448 0.1582,2.945313 l -9.13086,12.583984 c -0.78672,1.084378 -2.1832,1.308194 -3.26757,0.521484 -1.08438,-0.786707 -1.30624,-2.183219 -0.51954,-3.267578 l 9.13086,-12.585937 c 0.39334,-0.542167 0.93835,-0.868074 1.52149,-0.960938 z M 154.61719,51.125 c 0.007,0.0048 0.006,-0.0019 0,0.0059 -0.005,0.0073 0.004,0.0056 -0.004,0 -6.7e-4,-5.66e-4 -0.002,-0.0021 -0.004,-0.0039 -0.01,-0.01072 -0.001,0.007 0.004,0 0.005,-0.0071 -0.003,-0.007 0.004,-0.002 z m -12.11328,3.806641 24.6914,17.914062 -13.34961,18.400391 c -0.87019,1.19942 -2.47665,1.455905 -3.67578,0.585937 l -3.28906,-2.384765 -5.65039,7.789062 c -0.78672,1.084386 -2.18321,1.306238 -3.26758,0.519531 -1.08434,-0.786687 -1.308,-2.18346 -0.52148,-3.267578 l 5.65234,-7.789062 -6.2793,-4.556641 -5.65234,7.789063 c -0.78671,1.084391 -2.1832,1.30624 -3.26758,0.519531 -1.08439,-0.786724 -1.30625,-2.181251 -0.51953,-3.265625 l 5.65234,-7.791016 -3.28906,-2.386719 c -1.19922,-0.870026 -1.45418,-2.474374 -0.58398,-3.673828 z m 24.11132,2.476562 c -0.70452,0.112008 -1.36558,0.490675 -1.81445,1.109375 -0.8976,1.237189 -0.62024,2.988967 0.61719,3.886719 1.23719,0.897584 2.98897,0.618264 3.88672,-0.619141 0.45548,-0.627798 0.52891,-1.359967 0.4082,-2.072265 l 0.41406,-0.316407 -1.02148,-1.121093 c -0.12604,-0.13837 -0.26708,-0.264046 -0.41992,-0.375 -0.61859,-0.448785 -1.36579,-0.604195 -2.07032,-0.492188 z m 0.43164,2.740234 c 0.002,0.0013 1.7e-4,0.0025 0.002,0 0.005,-0.0072 -0.001,-0.005 0.006,0 0.007,0.0052 0.005,-0.0011 0,0.0059 -0.005,0.0072 0.001,0.005 -0.006,0 l -0.002,-0.002 z m 4.05274,15.5625 c 0.58329,-0.09276 1.20402,0.04813 1.74609,0.441407 0.13396,0.09721 0.25191,0.205686 0.35938,0.322265 0.74298,0.807231 0.84638,1.996738 0.1582,2.945313 l -9.12891,12.585937 c -0.7867,1.084367 -2.18323,1.306224 -3.26757,0.519532 -1.08434,-0.786683 -1.30604,-2.183472 -0.51953,-3.267579 l 9.1289,-12.585937 c 0.39325,-0.542035 0.94015,-0.868173 1.52344,-0.960938 z"
             id="path39119"
             sodipodi:nodetypes="cccccccccccccccscccccsccccscccccsccccccccccccccccccccscccccscccscccccscssssccccsscccsccsccccccccscccsccccscccccssssccccscccccccsscccsccs" />
          <path
             style="color:#000000;fill:#a3c738;stroke-width:2.78617;-inkscape-stroke:none;paint-order:markers stroke fill"
             d="m 176.00599,52.54533 c -0.0271,-0.03377 -0.0578,-0.06339 -0.0933,-0.0897 -0.15172,-0.112573 -0.35279,-0.141171 -0.54114,-0.05316 l -4.97581,2.322352 c -1.19615,-2.061925 -2.85557,-3.936325 -4.94322,-5.450906 -2.08763,-1.514572 -4.38442,-2.510472 -6.71575,-3.007712 l 0.66311,-5.450842 c 0.0248,-0.206384 -0.0642,-0.3879 -0.21822,-0.497363 -0.0718,-0.05115 -0.15177,-0.08132 -0.24376,-0.09252 -0.30208,-0.03688 -0.55237,0.159672 -0.58941,0.462454 l -0.66121,5.3886 c -5.64054,-0.840127 -11.34377,1.202774 -14.72068,5.845711 l 26.94633,19.5491 c 3.36579,-4.650944 3.53772,-10.706443 0.9887,-15.80782 l 4.91723,-2.300946 c 0.27641,-0.129156 0.38529,-0.427917 0.25637,-0.703756 -0.0197,-0.04205 -0.0422,-0.07962 -0.0693,-0.113459 z m -7.93012,6.668262 c 0.43274,0.475568 0.49076,1.215658 0.10026,1.753893 -0.44628,0.615125 -1.32479,0.754718 -1.93993,0.308432 -0.61512,-0.446269 -0.75471,-1.324789 -0.30842,-1.93992 0.44628,-0.615125 1.32478,-0.754712 1.93992,-0.30843 0.0768,0.05575 0.14635,0.118103 0.2082,0.186002 z m -12.43668,-9.023327 c 0.43273,0.475546 0.49129,1.216195 0.1008,1.754436 -0.44629,0.615124 -1.32479,0.754722 -1.93993,0.308434 -0.61512,-0.44627 -0.75578,-1.324794 -0.3095,-1.939923 0.44629,-0.615124 1.32533,-0.755251 1.94046,-0.308987 0.0769,0.05576 0.14635,0.118103 0.20817,0.186038 z m 18.59174,25.340181 c -0.16872,-0.183232 -0.35763,-0.352739 -0.56791,-0.505332 -1.6825,-1.220659 -3.99348,-0.853153 -5.21413,0.829339 l -9.13006,12.584563 c -1.22063,1.682501 -0.8526,3.992943 0.82989,5.213588 1.68248,1.220639 3.99241,0.853142 5.21305,-0.829348 l 9.13007,-12.584557 c 1.06806,-1.472191 0.91988,-3.425352 -0.26091,-4.708248 z M 169.14082,72.535603 142.19449,52.9865 128.02618,72.515829 c -1.30917,1.80452 -0.91085,4.311261 0.89366,5.620424 l 2.16147,1.567784 -4.83404,6.66251 c -1.22066,1.682499 -0.85315,3.9924 0.82935,5.213049 1.6825,1.220644 3.99241,0.853153 5.21305,-0.829358 l 4.83405,-6.662498 4.02448,2.920454 -4.8335,6.66197 c -1.22064,1.68251 -0.8526,3.992944 0.82989,5.21359 1.68249,1.220646 3.99241,0.853162 5.21306,-0.829342 l 4.83349,-6.661981 2.16093,1.567245 c 1.8045,1.309167 4.31127,0.90976 5.62045,-0.894734 z M 138.99386,49.966154 c -0.16874,-0.183232 -0.35817,-0.35328 -0.56847,-0.505886 -1.68248,-1.220639 -3.99294,-0.852595 -5.21358,0.829902 l -9.13006,12.584561 c -1.22065,1.682487 -0.85315,3.992396 0.82934,5.213035 1.6825,1.220647 3.9924,0.853138 5.21305,-0.829345 l 9.13006,-12.584564 c 1.06808,-1.472175 0.92043,-3.424799 -0.26036,-4.707693 z"
             id="path39121" />
        </g>
        <g
           id="rect3981-7-7-0"
           inkscape:transform-center-x="-26.841395"
           inkscape:transform-center-y="31.526246">
          <path
             style="color:#000000;fill:#ffffff;-inkscape-stroke:none;paint-order:markers stroke fill"
             d="m 110.91016,6.5195312 c -0.99045,-0.1043923 -2.01685,0.7318899 -2.1211,1.7187501 l -0.4414,4.1699217 c -5.62772,-0.291533 -11.160442,1.926519 -14.509769,6.644531 l -0.0078,-0.0059 -0.04102,0.05859 c -0.0011,0.0015 -0.0028,0.0024 -0.0039,0.0039 l -0.546875,0.777344 c -0.07802,-0.567858 -0.249039,-1.109949 -0.511719,-1.625 l 0.1875,-0.167969 -0.990234,-1.042969 C 91.6891,16.804146 91.425739,16.576969 91.134766,16.373047 v -0.002 c -2.31625,-1.622828 -5.543361,-1.052339 -7.166016,1.263672 l -8.953125,12.779296 c -1.622652,2.315973 -1.05424,5.541437 1.261719,7.164063 1.215654,0.851719 2.671689,1.06677 4.02539,0.775391 l -1.169922,1.669921 c -1.714394,2.446944 -1.115114,5.857726 1.332032,7.572266 l 1.050781,0.736328 -3.9375,5.619141 c -1.622657,2.315979 -1.056202,5.543392 1.259766,7.166015 2.315975,1.622634 5.54339,1.054265 7.166015,-1.261718 l 3.9375,-5.621094 1.796875,1.259766 -3.9375,5.621093 c -1.622817,2.316259 -1.054285,5.541408 1.261719,7.164063 2.315973,1.622631 5.541426,1.054254 7.164062,-1.261719 l 3.939458,-5.619141 1.04882,0.734375 c 2.44724,1.714596 5.85785,1.112919 7.57227,-1.333984 l 1.16992,-1.667969 c 0.18884,1.371506 0.88818,2.668039 2.10352,3.519532 2.31597,1.622634 5.54142,1.05423 7.16406,-1.261719 l 8.95508,-12.779297 c 1.05093,-1.500023 1.18087,-3.378195 0.51367,-4.958984 l 0.31641,-0.158204 -1.30274,-1.36914 c -0.23465,-0.246557 -0.49846,-0.476028 -0.78906,-0.679688 -1.2152,-0.851398 -2.67006,-1.066098 -4.02344,-0.77539 l 0.31055,-0.447266 0.23437,-0.335937 0.0449,-0.0625 -0.01,-0.0078 c 3.29001,-4.759078 3.48687,-10.714799 1.29102,-15.904297 l 3.76757,-1.883113 c 0.26421,-0.128813 0.53694,-0.355656 0.71004,-0.597205 0.3137,-0.551683 0.26607,-1.022987 0.26607,-1.022987 0.0216,-0.865384 -0.33158,-1.299428 -0.33158,-1.299428 l -0.006,-0.0078 -0.002,-0.002 c -0.10059,-0.120999 -0.22328,-0.237522 -0.35547,-0.332031 -0.49939,-0.357963 -1.20329,-0.420885 -1.80859,-0.193359 -0.58405,0.170793 -1.38477,0.624997 -1.38477,0.624997 l -2.70312,1.316406 c -1.24996,-1.785789 -2.75975,-3.441177 -4.66406,-4.775391 -1.9041,-1.334049 -3.97696,-2.188885 -6.08203,-2.753906 l 0.45507,-4.3417969 c 0.0741,-0.7022097 -0.27927,-1.4193207 -0.82617,-1.7949219 -0.26277,-0.1802945 -0.59585,-0.2971405 -0.89062,-0.328125 z m -5.35157,8.6425778 c 1.26177,-0.152946 2.56063,-0.144777 3.86329,0.02734 l 0.5,0.06641 0.4707,0.0918 c 2.15782,0.423165 4.29646,1.306893 6.25586,2.679688 1.95937,1.372793 3.52163,3.081242 4.65625,4.964843 l 0.25,0.416016 0.23047,0.441406 c 2.20069,4.228436 2.21479,9.104424 -0.004,13.167969 L 97.048828,19.689453 c 2.217644,-2.515355 5.194412,-4.12547 8.509762,-4.527344 z m 0.56446,1.015625 c -0.70516,0.124253 -1.36444,0.51619 -1.80469,1.144532 -0.88091,1.25724 -0.57044,3.008696 0.68555,3.888671 1.25637,0.880269 3.0102,0.571052 3.89062,-0.685546 0.77089,-1.100308 0.63637,-2.566886 -0.25781,-3.517579 -0.12852,-0.136629 -0.27154,-0.261739 -0.42774,-0.371093 -0.62856,-0.440382 -1.38078,-0.583237 -2.08593,-0.458985 z m -18.351566,2.070313 c 0.583641,-0.102838 1.207369,0.02841 1.757813,0.414062 0.136124,0.0954 0.259191,0.20088 0.36914,0.316407 0.758942,0.79776 0.88215,1.991502 0.207032,2.955078 l -8.953125,12.779297 c -0.771534,1.10119 -2.170305,1.347686 -3.271485,0.576171 -1.101196,-0.771529 -1.347689,-2.170316 -0.576172,-3.271484 l 8.955079,-12.779297 c 0.385746,-0.550574 0.928078,-0.887397 1.511718,-0.990234 z m 18.837896,0.671875 c 0.007,0.0047 0.006,-0.0021 0,0.0059 -0.005,0.0074 0.002,0.0055 -0.006,0 -8.6e-4,-7.12e-4 -0.002,-0.0023 -0.004,-0.0039 -0.01,-0.01059 -10e-4,0.0071 0.004,0 0.005,-0.0073 -0.001,-0.0069 0.006,-0.002 z m -12.093755,4.021484 25.074215,17.56836 -13.09179,18.685546 c -0.85342,1.218034 -2.46195,1.501618 -3.67969,0.648438 L 99.480469,57.503906 93.9375,65.414062 c -0.771533,1.101202 -2.168346,1.347691 -3.269531,0.576172 -1.101151,-0.771496 -1.349458,-2.170556 -0.578125,-3.271484 L 95.632812,54.808594 89.255859,50.339844 83.712891,58.25 c -0.771527,1.101205 -2.16835,1.347688 -3.269532,0.576172 -1.101208,-0.771534 -1.347702,-2.168344 -0.576172,-3.269531 l 5.542969,-7.91211 -3.339844,-2.339844 c -1.2178,-0.853225 -1.499879,-2.459689 -0.646484,-3.677734 z m 24.236325,2.085938 c -0.70513,0.124056 -1.36252,0.514288 -1.80273,1.142578 -0.88027,1.256367 -0.57304,3.008261 0.68359,3.888672 1.25637,0.880249 3.01022,0.572999 3.89063,-0.683594 0.49346,-0.704281 0.49357,-1.520877 0.2832,-2.294922 l 0.27539,-0.357422 -0.8164,-0.867187 c -0.12834,-0.136329 -0.27155,-0.259791 -0.42774,-0.369141 -0.62818,-0.440122 -1.3808,-0.58304 -2.08594,-0.458984 z m 0.48047,2.742187 c 0.005,-0.0073 -0.001,-0.0049 0.006,0 0.007,0.0051 0.007,-0.0012 0.002,0.0059 -0.005,0.0073 0.001,0.0049 -0.006,0 1e-5,10e-6 -0.002,-0.0018 -0.004,-0.0039 7.5e-4,0.0014 -6.8e-4,0.0018 0.002,-0.002 z m 4.32227,15.548828 c 0.58379,-0.102742 1.20927,0.03032 1.75976,0.416016 v -0.002 c 0.13646,0.09564 0.25717,0.202754 0.36719,0.318359 0.75778,0.79776 0.88154,1.990388 0.20703,2.953125 l -8.95312,12.779297 c -0.77154,1.101196 -2.16837,1.347681 -3.26953,0.576172 -1.10116,-0.771494 -1.3475,-2.170569 -0.57618,-3.271484 l 8.95313,-12.779297 c 0.38566,-0.550444 0.92792,-0.887493 1.51172,-0.990235 z"
             id="path39147"
             sodipodi:nodetypes="cccccccccccccccscccccsccccscccccsccccccccccccccccccccccscccccscccscccccsssccscssccccsccsccccccccccccsccccscccccssssccscscccsccccccccscccc" />
          <path
             style="color:#000000;fill:#a3c738;stroke-width:2.7963;-inkscape-stroke:none;paint-order:markers stroke fill"
             d="m 128.09542,19.99111 c -0.0278,-0.03344 -0.059,-0.06266 -0.0951,-0.08847 -0.15409,-0.110451 -0.35636,-0.135826 -0.54391,-0.04443 l -4.95479,2.412815 c -1.23445,-2.049342 -2.93069,-3.902849 -5.0507,-5.388187 -2.12001,-1.485322 -4.44131,-2.446701 -6.78903,-2.907106 l 0.57525,-5.4808818 c 0.0219,-0.2074911 -0.071,-0.3881968 -0.22723,-0.4954926 -0.0729,-0.050141 -0.15364,-0.079092 -0.24614,-0.088815 -0.30374,-0.032014 -0.55165,0.1693703 -0.58381,0.4738248 l -0.57436,5.4183976 c -5.67419,-0.749734 -11.363576,1.394686 -14.675463,6.109749 l 27.364093,19.171632 c 3.30061,-4.72292 3.37295,-10.802448 0.73059,-15.879498 l 4.89637,-2.390362 c 0.27522,-0.134181 0.37955,-0.43579 0.24561,-0.710468 -0.0205,-0.04187 -0.0438,-0.0792 -0.0716,-0.112712 z m -7.84752,6.822816 c 0.44213,0.470077 0.5126,1.21179 0.12963,1.75837 -0.43766,0.624663 -1.31693,0.77928 -1.94161,0.34161 -0.62467,-0.437651 -0.77928,-1.316936 -0.34161,-1.941604 0.43767,-0.624662 1.31694,-0.779272 1.94161,-0.341609 0.0781,0.05468 0.14883,0.116102 0.212,0.183207 z m -12.62951,-8.849117 c 0.44211,0.47005 0.51314,1.212322 0.13019,1.758915 -0.43766,0.624662 -1.31694,0.779283 -1.94162,0.341606 -0.62466,-0.437652 -0.78035,-1.316924 -0.34267,-1.941583 0.43767,-0.624661 1.31746,-0.779831 1.94212,-0.342182 0.0781,0.05468 0.14882,0.116094 0.21198,0.183242 z m 19.07611,25.121228 c -0.17234,-0.181081 -0.36472,-0.348055 -0.57825,-0.497703 -1.70861,-1.197097 -4.02158,-0.790058 -5.21867,0.918519 L 111.9438,56.28652 c -1.19707,1.708587 -0.78952,4.021025 0.91907,5.218099 1.70857,1.197073 4.02048,0.790066 5.21757,-0.918508 l 8.95378,-12.779669 c 1.04743,-1.495017 0.86642,-3.452552 -0.33973,-4.7204 z M 121.53702,40.164938 94.172921,20.993304 80.278176,40.825414 c -1.283896,1.832496 -0.842692,4.34142 0.989783,5.625304 l 2.194985,1.537506 -4.740716,6.765811 c -1.197095,1.708585 -0.790078,4.020489 0.918512,5.217569 1.70858,1.197076 4.020497,0.790076 5.217574,-0.91852 l 4.740715,-6.7658 4.086886,2.864081 -4.740173,6.765261 c -1.197076,1.708595 -0.789526,4.021025 0.919053,5.218102 1.708581,1.197076 4.020498,0.790085 5.217584,-0.918504 l 4.740167,-6.765272 2.194434,1.536973 c 1.83249,1.283889 4.34139,0.841605 5.62531,-0.990865 z M 90.911092,18.015343 c -0.172339,-0.181081 -0.365267,-0.34859 -0.578816,-0.498251 -1.70857,-1.197071 -4.021021,-0.789507 -5.218096,0.919074 L 76.160406,31.21584 c -1.197086,1.708572 -0.790068,4.020483 0.918511,5.217562 1.708581,1.197076 4.020489,0.79006 5.217574,-0.918509 l 8.953773,-12.779674 c 1.047456,-1.495001 0.866976,-3.452015 -0.339182,-4.719867 z"
             id="path39149" />
        </g>
        <g
           id="rect3981-7-7">
          <path
             style="color:#000000;fill:#ffffff;-inkscape-stroke:none;paint-order:markers stroke fill"
             d="m 127.12109,22.582031 c -0.15647,-0.01634 -0.32505,-0.01271 -0.48437,0.01172 -0.55764,0.08504 -1.04161,0.486407 -1.33594,1 -0.30273,0.473144 -0.64062,1.527344 -0.64062,1.527344 l -1.01172,2.822265 c -2.13413,-0.403688 -4.36386,-0.533905 -6.65039,-0.160156 -2.28594,0.373655 -4.35777,1.20579 -6.25196,2.267578 l -2.69726,-3.414062 c -0.43545,-0.551662 -1.18607,-0.818049 -1.83789,-0.705078 -0.31319,0.05402 -0.63104,0.205236 -0.86328,0.388671 -0.77895,0.614787 -0.92882,1.92293 -0.31641,2.699219 l 2.58594,3.283203 c -4.21543,3.708065 -6.61688,9.137477 -5.72266,14.832032 l -0.01,0.002 0.0117,0.07031 c 3.3e-4,0.002 -3.2e-4,0.0039 0,0.0059 l 0.15235,0.9375 c -0.47079,-0.366443 -0.99689,-0.63787 -1.57031,-0.822266 v -0.236328 l -1.341801,-0.05078 c -0.338995,-0.01253 -0.68575,0.0093 -1.035157,0.06641 -2.781028,0.454578 -4.686954,3.104032 -4.232421,5.884765 l 2.507812,15.34375 c 0.45451,2.780702 3.106043,4.686942 5.886717,4.232422 1.46012,-0.238666 2.64764,-1.099555 3.41016,-2.25 l 0.32812,2.00586 c 0.48023,2.93794 3.28056,4.952921 6.21875,4.472656 l 1.25977,-0.207031 1.10351,6.75 c 0.45452,2.780712 3.10604,4.684995 5.88672,4.230468 2.7807,-0.454523 4.68501,-3.104074 4.23047,-5.884765 l -1.10351,-6.748047 2.1582,-0.353516 1.10352,6.748047 c 0.45459,2.781026 3.10599,4.686952 5.88671,4.232422 2.78069,-0.454525 4.685,-3.104072 4.23047,-5.884766 l -1.10351,-6.75 1.25976,-0.205078 c 2.9383,-0.480285 4.95285,-3.282768 4.47266,-6.220703 L 141.27734,64.5 c 1.08922,0.847252 2.48949,1.283528 3.94922,1.044922 2.78069,-0.454522 4.68693,-3.104084 4.23242,-5.884766 l -2.50781,-15.34375 c -0.39778,-2.433406 -2.4612,-4.208076 -4.84961,-4.296875 h -0.002 c -0.33889,-0.01253 -0.68423,0.0075 -1.0332,0.06445 -1.45874,0.238438 -2.64732,1.097363 -3.41016,2.246094 l -0.12891,-0.771484 -0.0273,-0.166016 -0.0117,-0.07422 -0.0117,0.002 C 136.51158,35.63551 132.50665,31.252788 127.32813,29.080078 l 1.4082,-3.935547 c 0.0946,-0.263991 0.0993,-0.727094 0.0618,-1.007795 0,0 -0.11018,-0.522873 -0.53853,-1.012408 -0.16827,-0.290662 -1.13072,-0.542297 -1.13072,-0.542297 h -0.004 z m -6.19921,7.75 c 1.13456,0.05404 2.24084,0.225126 3.30078,0.501953 l 0.47265,0.123047 0.4668,0.154297 c 4.51152,1.483821 7.91439,4.949354 9.16016,9.390625 l -29.69532,4.855469 c -0.2334,-4.607046 1.88708,-8.977158 5.69141,-11.820313 l 0.4082,-0.304687 0.39453,-0.257813 c 1.83323,-1.199816 3.97362,-2.05686 6.32618,-2.441406 1.17627,-0.19227 2.34004,-0.25521 3.47461,-0.201172 z m 5.26562,2.570313 c -0.18666,-0.0079 -0.37553,0.0026 -0.5625,0.0332 -1.50846,0.246568 -2.54346,1.684623 -2.29687,3.193359 0.24656,1.508481 1.68654,2.543494 3.19531,2.296875 1.50847,-0.246568 2.54348,-1.684614 2.29687,-3.193359 -0.13222,-0.808973 -0.65536,-1.3831 -1.29883,-1.794922 v -0.478516 z m -15.16406,2.476562 c -0.18703,-0.008 -0.3755,0.0046 -0.5625,0.03516 -1.50937,0.246729 -2.54348,1.686428 -2.29688,3.195313 0.24674,1.509532 1.68731,2.541415 3.19532,2.294922 1.50846,-0.246567 2.54345,-1.684634 2.29687,-3.19336 -0.21594,-1.321088 -1.33359,-2.27633 -2.63281,-2.332031 z m 15.04883,0.298828 c 0.009,-0.0014 0.004,-0.0065 0.006,0.002 10e-4,0.0087 0.005,0.0045 -0.004,0.0059 4.3e-4,-7.1e-5 -7.7e-4,1.33e-4 -0.004,0 h -0.002 c -0.006,-2.48e-4 -0.001,-0.0023 0,-0.002 0.002,5.08e-4 0.003,0.0026 0.002,-0.002 -10e-4,-0.0087 -0.006,-0.0025 0.002,-0.0039 z m -15.16211,2.476563 c 0.008,-0.0013 0.002,-0.0036 0.004,0.0059 0.001,0.0089 0.005,0.0024 -0.004,0.0039 4.3e-4,-7e-5 -0.002,1.51e-4 -0.006,0 -0.0145,-6.2e-4 0.003,0.0047 0.002,-0.0039 -0.001,-0.0087 -0.004,-0.0045 0.004,-0.0059 z m 31.08789,4.648437 c 1.09634,0.04076 2.01406,0.806323 2.20312,1.962891 l 2.50781,15.34375 c 0.21611,1.322157 -0.60951,2.469437 -1.93164,2.685547 -1.3221,0.216108 -2.46948,-0.607873 -2.68554,-1.929688 l -2.50977,-15.345703 c -0.21605,-1.321785 0.61171,-2.469477 1.93359,-2.685547 0.16385,-0.02676 0.3235,-0.03712 0.48243,-0.03125 z m -6.81055,1.712891 3.66797,22.4375 c 0.23903,1.462445 -0.70979,2.782497 -2.17188,3.021484 l -4.00781,0.65625 1.55078,9.498047 c 0.21612,1.322166 -0.60949,2.469432 -1.93164,2.685547 -1.32211,0.216108 -2.46948,-0.609809 -2.68555,-1.931641 l -1.55273,-9.498046 -7.65625,1.251953 1.55078,9.498047 c 0.21613,1.322166 -0.6095,2.469433 -1.93164,2.685546 -1.32217,0.216121 -2.46944,-0.607533 -2.68555,-1.929687 l -1.55273,-9.5 -4.00977,0.65625 c -1.46216,0.239 -2.78048,-0.709419 -3.01953,-2.171875 l -3.66797,-22.4375 z m -36.154297,5.310547 c 1.096337,0.04076 2.014027,0.805958 2.203127,1.96289 l 2.50976,15.34375 c 0.21611,1.32215 -0.6095,2.469436 -1.93164,2.685547 -1.32215,0.216114 -2.471393,-0.609512 -2.687497,-1.93164 l -2.507812,-15.34375 c -0.216109,-1.322105 0.60984,-2.471443 1.93164,-2.6875 0.163449,-0.02669 0.323595,-0.03517 0.482422,-0.0293 z"
             id="path39139"
             sodipodi:nodetypes="cccccscccccccccccccccccscccccsccccscccccscccccccccccccccccsccccccccssccssscccsccscssccccccccccccsccccsccsccccccsccccsccccccsccscccss" />
          <path
             style="color:#000000;fill:#a3c738;stroke-width:2.78617;-inkscape-stroke:none;paint-order:markers stroke fill"
             d="m 126.97687,23.967122 c -0.0431,-0.0045 -0.0857,-0.0036 -0.12939,0.0031 -0.18676,0.02848 -0.34864,0.151123 -0.41879,0.346816 l -1.85427,5.168521 c -2.3064,-0.60237 -4.80581,-0.743741 -7.35122,-0.327676 -2.5454,0.416067 -4.86974,1.345843 -6.8643,2.651249 l -3.40382,-4.308759 c -0.1288,-0.163175 -0.3207,-0.227485 -0.50683,-0.195226 -0.0869,0.01499 -0.16461,0.05052 -0.23733,0.107956 -0.23888,0.188538 -0.27553,0.504666 -0.0866,0.744153 l 3.36096,4.263586 c -4.56802,3.413893 -7.13291,8.902214 -6.21354,14.569234 l 32.85465,-5.370636 c -0.93288,-5.664766 -5.11191,-10.050463 -10.5292,-11.832188 l 1.82824,-5.111862 c 0.10289,-0.287208 -0.0326,-0.574883 -0.31925,-0.677548 -0.0437,-0.01565 -0.0863,-0.02605 -0.1294,-0.03064 z m -0.84828,10.326317 c 0.64239,0.02755 1.20879,0.507435 1.31605,1.163701 0.12259,0.75001 -0.39683,1.472134 -1.14686,1.594731 -0.75,0.122593 -1.47213,-0.39684 -1.59472,-1.146858 -0.12258,-0.750018 0.39684,-1.472133 1.14686,-1.594729 0.0937,-0.01532 0.18691,-0.02077 0.27867,-0.01688 z m -15.1641,2.478227 c 0.64237,0.02754 1.20955,0.507435 1.31682,1.163698 0.12258,0.750017 -0.39683,1.472138 -1.14686,1.594734 -0.75,0.122592 -1.47289,-0.396082 -1.59548,-1.146096 -0.12258,-0.750017 0.39684,-1.4729 1.14684,-1.595499 0.0937,-0.01532 0.18691,-0.02077 0.27868,-0.01684 z m 31.08461,4.639488 c -0.24891,-0.0092 -0.50229,0.0056 -0.7587,0.04748 -2.05144,0.335319 -3.4176,2.235129 -3.08229,4.286553 L 140.7162,61.0892 c 0.33533,2.051417 2.23513,3.41683 4.28655,3.081509 2.05141,-0.335316 3.41683,-2.234368 3.08152,-4.285789 l -2.50808,-15.344013 c -0.29342,-1.794989 -1.78471,-3.064967 -3.52709,-3.129747 z m -5.71057,1.505924 -32.85465,5.370633 3.89228,23.811467 c 0.35964,2.2002 2.42017,3.682307 4.62035,3.322674 l 2.63517,-0.43103 1.32754,8.123708 c 0.33531,2.051435 2.23436,3.416835 4.28579,3.081511 2.05142,-0.335319 3.41684,-2.234362 3.08151,-4.285793 l -1.32753,-8.123703 4.90744,-0.801576 1.32754,8.122941 c 0.33533,2.051431 2.23513,3.416832 4.28655,3.081513 2.05142,-0.33532 3.41685,-2.23436 3.08153,-4.285792 l -1.32756,-8.122938 2.63441,-0.431028 c 2.20019,-0.359637 3.68154,-2.420931 3.32193,-4.621123 z m -37.252973,5.516859 c -0.248911,-0.0092 -0.50305,0.0056 -0.759478,0.04748 -2.051416,0.335318 -3.416825,2.235136 -3.081504,4.286557 l 2.508089,15.34401 c 0.335307,2.051417 2.234362,3.416829 4.285776,3.081512 2.05142,-0.335318 3.41683,-2.234375 3.08152,-4.285788 l -2.50809,-15.344013 c -0.29339,-1.794995 -1.78393,-3.064968 -3.526313,-3.129744 z"
             id="path39141" />
        </g>
        <g
           id="rect3981-7-7-1">
          <path
             style="color:#000000;fill:#ffffff;-inkscape-stroke:none;paint-order:markers stroke fill"
             d="m 59.344784,24.002907 c -0.474237,-0.07649 -0.850507,0.102906 -0.850507,0.102906 -0.0028,0.0022 -0.272715,0.202474 -0.275515,0.204774 l -0.002,0.002 c -0.09425,0.07673 -0.154252,0.16416 -0.227217,0.263835 -0.118094,0.161285 -0.156461,0.219561 -0.200021,0.421566 0,0 -0.106927,0.358688 -0.07633,0.595806 l 0.243956,0.659901 0.308443,0.78741 0.990234,2.089843 c -1.382341,0.946816 -2.666618,2.093646 -3.707031,3.546875 -1.040418,1.453242 -1.713228,3.040536 -2.164062,4.654297 l -3.335938,-0.384765 c -0.538025,-0.06224 -1.091354,0.20406 -1.384766,0.621093 -0.140688,0.200172 -0.233362,0.455068 -0.259765,0.681641 -0.0879,0.759861 0.545672,1.555686 1.302734,1.644531 l 3.203125,0.373047 c -0.267823,4.323445 1.39386,8.59367 4.994141,11.205078 l -0.0039,0.0059 0.04102,0.0293 c 0.0023,0.0017 0.0036,0.0042 0.0059,0.0059 l 0.632812,0.453125 c -0.810916,0.09733 -1.607353,0.381943 -2.228516,0.960937 -0.191433,0.178509 -0.37026,0.379483 -0.529296,0.601563 -1.265638,1.767816 -0.853562,4.252076 0.914062,5.517578 l 9.753906,6.984375 c 1.767603,1.265489 4.252103,0.853529 5.517578,-0.914063 0.663512,-0.926782 0.84308,-2.044024 0.63086,-3.085937 l 1.271484,0.910156 c 1.867565,1.33704 4.494869,0.900921 5.832031,-0.966797 l 0.572266,-0.800781 4.291016,3.072266 c 1.767604,1.265504 4.2521,0.853537 5.517578,-0.914063 1.265477,-1.767603 0.853548,-4.252104 -0.914063,-5.517578 l -4.291015,-3.072266 0.982422,-1.371093 4.291015,3.072265 c 1.767821,1.26563 4.252074,0.853559 5.517578,-0.914062 1.26547,-1.767603 0.853537,-4.252092 -0.914062,-5.517578 l -4.289063,-3.072266 0.572266,-0.800781 C 92.41536,44.271058 91.980838,41.645831 90.1133,40.308767 l -1.273437,-0.91211 c 1.055816,-0.134389 2.056599,-0.662238 2.720703,-1.589843 1.265477,-1.7676 0.855485,-4.252094 -0.91211,-5.517579 L 80.894549,25.30486 c -1.546859,-1.107418 -3.641312,-0.944836 -4.990234,0.3125 -0.191339,0.17843 -0.370447,0.379731 -0.529297,0.601563 -0.664106,0.92761 -0.839984,2.045114 -0.626953,3.087891 l -0.597656,-0.425782 -0.04687,-0.03516 -0.0059,0.0078 c -3.63276,-2.567134 -8.209973,-2.764892 -12.21678,-1.117344 l -1.384765,-2.912109 c -0.0997,-0.209861 -0.106327,-0.392956 -0.297711,-0.529452 0,0 -0.425255,-0.330105 -0.853599,-0.29186 z m 19.118107,2.704124 c 0.398891,-0.02776 0.812082,0.08253 1.179687,0.345703 l 9.753906,6.984375 c 0.840455,0.601712 1.017707,1.677145 0.416016,2.517578 -0.601689,0.840426 -1.677334,1.01952 -2.517578,0.417969 l -9.753906,-6.984375 c -0.840209,-0.601541 -1.019556,-1.677294 -0.417969,-2.517578 0.07456,-0.104115 0.156342,-0.197554 0.246094,-0.28125 0.309596,-0.288576 0.694858,-0.454658 1.09375,-0.482422 z m -10.976563,2.0625 c 1.558297,0.07187 3.053579,0.58386 4.447266,1.363281 L 58.419922,49.009766 c -2.646019,-2.38073 -3.880321,-5.918922 -3.363281,-9.546875 l 0.05469,-0.388672 0.07422,-0.357422 c 0.342202,-1.655426 1.038735,-3.291655 2.109375,-4.78711 1.070634,-1.495442 2.396673,-2.68162 3.853515,-3.539062 l 0.326172,-0.191406 0.337891,-0.171875 c 1.801496,-0.914377 3.759005,-1.346126 5.673828,-1.257813 z m -3.318359,0.916016 -0.81836,0.755859 c -0.106143,0.0979 -0.202301,0.207803 -0.287109,0.326172 h -0.002 c -0.686499,0.958879 -0.462952,2.307504 0.496094,2.994141 0.95889,0.686509 2.30946,0.462982 2.996093,-0.496094 0.685064,-0.958784 0.462407,-2.307909 -0.496093,-2.994141 -0.496794,-0.355678 -1.075841,-0.398737 -1.634766,-0.291015 z m 10.43164,2.158203 14.261719,10.210937 c 0.929624,0.665565 1.136097,1.904581 0.470703,2.833985 h -0.002 l -1.822266,2.548828 6.03711,4.322266 c 0.840459,0.601714 1.017714,1.677128 0.416015,2.517578 -0.601693,0.840428 -1.679279,1.019527 -2.519531,0.417968 l -6.037109,-4.322265 -3.484375,4.867187 6.037109,4.322266 c 0.840465,0.601708 1.019668,1.677132 0.417969,2.517578 -0.601716,0.840468 -1.679088,1.019678 -2.519531,0.417969 l -6.03711,-4.324219 -1.824218,2.550781 c -0.665432,0.92946 -1.902383,1.134311 -2.832032,0.46875 L 60.898437,50.982422 Z m -9.791015,0.169922 c 0.0055,0.004 0.0038,5.13e-4 0,0.0059 l -0.002,0.002 -0.002,-0.002 c -0.0055,-0.004 -0.0038,0.0014 0,-0.0039 0.004,-0.0056 -0.0015,-0.0058 0.0039,-0.002 z m -7.044922,7.501953 c -0.479592,0.03262 -0.947497,0.224487 -1.316406,0.564453 -0.105978,0.09767 -0.201672,0.20672 -0.28711,0.326172 -0.686888,0.959462 -0.463046,2.30939 0.496094,2.996094 0.959559,0.686996 2.30785,0.462499 2.994141,-0.496094 0.686515,-0.958885 0.464897,-2.309462 -0.494141,-2.996094 -0.419889,-0.300605 -0.912986,-0.427155 -1.392578,-0.394531 z m 0.138672,2.138672 c 0.0036,-0.0051 -1.9e-4,-0.0043 0.0059,0 0.0056,0.004 0.0043,-0.002 0,0.0039 -1.79e-4,2.5e-4 -0.0021,2.71e-4 -0.0039,0.002 v -0.002 c -0.0055,-0.004 -0.0058,0.0014 -0.002,-0.0039 z m 1.007812,12.363281 c 0.398756,-0.02768 0.811977,0.0844 1.179688,0.347656 l 9.753906,6.982422 c 0.840445,0.601706 1.017713,1.677137 0.416016,2.517578 -0.601705,0.84045 -1.677134,1.019673 -2.517579,0.417969 l -9.753906,-6.984375 c -0.840421,-0.601686 -1.019513,-1.677353 -0.417969,-2.517578 0.0744,-0.10389 0.158376,-0.197633 0.248047,-0.28125 0.309348,-0.287772 0.693638,-0.454782 1.091797,-0.482422 z"
             id="path39155"
             sodipodi:nodetypes="ccccccccccscccccccccccccccscccccsccccscccccsccccccccccccsccsccccsscccccscccssccccccsccccccccsccccsccccccccccsccsscsscsccscccsccsccccs" />
          <path
             style="color:#000000;fill:#a3c738;stroke-width:2.14966;-inkscape-stroke:none;paint-order:markers stroke fill"
             d="m 58.894602,25.145618 c -0.02594,0.02112 -0.04861,0.04488 -0.06877,0.07242 -0.08611,0.117603 -0.107199,0.272872 -0.03841,0.417767 l 1.815932,3.827708 c -1.585029,0.932888 -3.023125,2.222284 -4.181531,3.840325 -1.1584,1.618037 -1.915612,3.394916 -2.287929,5.196026 l -4.208689,-0.485136 c -0.159326,-0.01843 -0.298968,0.05146 -0.382671,0.17078 -0.03912,0.05566 -0.06201,0.117494 -0.07019,0.188518 -0.02698,0.23324 0.12585,0.425397 0.359657,0.452502 l 4.160693,0.483973 c -0.620788,4.355932 0.983074,8.746234 4.581645,11.329073 L 73.526189,29.754682 C 69.921492,27.180459 65.248648,27.077219 61.325153,29.068648 L 59.52602,25.28602 c -0.101006,-0.212617 -0.332025,-0.295175 -0.544219,-0.194367 -0.03232,0.01536 -0.06125,0.033 -0.0872,0.05406 z m 5.183296,6.085942 c 0.364815,-0.336181 0.935529,-0.384541 1.352697,-0.08587 0.476756,0.34133 0.588725,1.018448 0.24738,1.49522 -0.341322,0.476752 -1.01845,0.588716 -1.495214,0.247381 -0.476758,-0.341339 -0.588718,-1.018452 -0.247382,-1.495219 0.04268,-0.05957 0.09041,-0.113487 0.142501,-0.161533 z m -6.901377,9.639119 c 0.364793,-0.336173 0.935946,-0.384955 1.353111,-0.0863 0.476756,0.341338 0.588727,1.01845 0.247382,1.495221 -0.341323,0.476751 -1.01845,0.589544 -1.495205,0.248211 -0.476757,-0.341338 -0.589136,-1.018867 -0.247821,-1.495624 0.0426,-0.05956 0.09041,-0.113487 0.142526,-0.161516 z M 76.636965,26.403482 c -0.140545,0.131063 -0.270413,0.277638 -0.387116,0.440612 -0.933604,1.304038 -0.638836,3.085244 0.66518,4.018845 l 9.753736,6.983004 c 1.304032,0.933588 3.084822,0.638419 4.01842,-0.665609 0.933585,-1.304018 0.638833,-3.084408 -0.665193,-4.018007 L 80.26827,26.179316 c -1.141036,-0.816884 -2.647236,-0.693078 -3.631296,0.224169 z m -2.285889,3.941733 -14.951868,20.88489 15.136306,10.836445 c 1.398608,1.001301 3.330698,0.681802 4.331996,-0.716788 l 1.199097,-1.675258 5.163818,3.697255 c 1.304025,0.933608 3.084406,0.638842 4.018004,-0.665193 0.933589,-1.304026 0.638838,-3.08441 -0.665201,-4.018002 l -5.163803,-3.69726 2.23367,-3.119198 5.1634,3.696837 c 1.304038,0.933595 3.084822,0.63842 4.018422,-0.665606 0.933585,-1.304028 0.638842,-3.084414 -0.665188,-4.018015 l -5.163406,-3.696824 1.19868,-1.674842 c 1.001306,-1.398597 0.680974,-3.330695 -0.717608,-4.33201 z M 57.084461,53.714171 c -0.140553,0.131063 -0.270827,0.278053 -0.387544,0.441038 -0.933592,1.304022 -0.638407,3.084821 0.665617,4.018416 l 9.753728,6.983002 c 1.304025,0.933597 3.084406,0.63884 4.017997,-0.665182 0.933591,-1.304025 0.63883,-3.084412 -0.665186,-4.018006 L 60.715338,53.490435 C 59.574322,52.67353 58.068524,52.796929 57.08447,53.714179 Z"
             id="path39157" />
        </g>
        <g
           id="rect3981-7-7-8">
          <path
             style="color:#000000;fill:#ffffff;-inkscape-stroke:none;paint-order:markers stroke fill"
             d="m 36.036809,50.472956 c -0.659856,0.03245 -1.027043,0.382513 -1.027043,0.382513 h -0.002 c -0.123,0.09796 -0.241327,0.220432 -0.33789,0.349609 -0.336705,0.450578 -0.40249,1.075304 -0.253906,1.646484 l 0.615234,1.542969 1.255859,2.720703 c -1.80447,1.207701 -3.485005,2.678266 -4.853515,4.546875 -1.368559,1.868682 -2.262284,3.915078 -2.869141,6 l -4.318359,-0.544922 c -0.697234,-0.08827 -1.418942,0.247709 -1.804688,0.785157 -0.185562,0.258085 -0.306674,0.587269 -0.34375,0.880859 -0.124693,0.984463 0.685105,2.023975 1.666016,2.148438 l 4.146484,0.527343 c -0.408157,5.600485 1.683837,11.158674 6.314453,14.59375 l -0.0059,0.0078 0.05859,0.04297 c 7.63e-4,5.6e-4 0.0012,0.0014 0.002,0.002 l 0.767578,0.5625 c -0.576032,0.06659 -1.128847,0.229007 -1.654297,0.486328 l -0.166016,-0.183594 -1.027343,0.941406 c -0.0018,0.0016 -0.0041,0.0023 -0.0059,0.0039 l -0.002,0.002 c -0.250572,0.228661 -0.484135,0.48588 -0.693359,0.771484 -1.664999,2.273443 -1.165782,5.499244 1.107422,7.164063 l 12.542968,9.185539 c 2.273165,1.66483 5.499277,1.16769 7.164063,-1.10547 0.873181,-1.19227 1.120317,-2.63848 0.859375,-3.992179 l 1.634766,1.197269 c 2.401719,1.75895 5.813174,1.23198 7.572265,-1.169925 l 0.753906,-1.029297 5.517579,4.041012 c 2.273172,1.66482 5.499277,1.16575 7.164062,-1.10742 1.664799,-2.273163 1.165753,-5.499273 -1.107422,-7.164061 l -5.517578,-4.041015 1.292969,-1.763672 5.515625,4.041015 c 2.27345,1.664986 5.499245,1.165777 7.164062,-1.107421 1.664794,-2.273168 1.1677,-5.499266 -1.105468,-7.164063 l -5.517579,-4.039062 0.753907,-1.03125 c 1.759152,-2.402006 1.231764,-5.811351 -1.169922,-7.570313 l -1.636719,-1.199219 c 1.370395,-0.159321 2.675084,-0.830396 3.548828,-2.023437 1.664796,-2.273166 1.16573,-5.499264 -1.107422,-7.164063 L 64.384766,52.460937 c -1.989284,-1.456861 -4.704898,-1.276701 -6.470704,0.333985 -0.250494,0.228589 -0.484396,0.486229 -0.693359,0.771484 -0.873273,1.192392 -1.120301,2.63826 -0.859375,3.992188 l -0.765625,-0.560547 c -0.0012,-8.83e-4 -0.0027,-0.0011 -0.0039,-0.002 l -0.05859,-0.04297 -0.0059,0.0078 C 50.855433,53.583954 44.926398,53.266959 39.710937,55.345703 l -1.753906,-3.792969 c -0.3553,-0.697537 -0.965294,-0.95598 -0.965294,-0.95598 -0.454327,-0.162259 -0.954928,-0.123798 -0.954928,-0.123798 z m 25.178035,3.771185 c 0.517359,-0.03041 1.050696,0.118629 1.523437,0.464843 l 12.542969,9.185547 c 1.080837,0.791577 1.297415,2.188717 0.505859,3.269531 -0.791539,1.080796 -2.188964,1.297223 -3.269531,0.50586 L 59.972656,58.484375 c -1.080531,-0.791355 -1.295319,-2.190866 -0.503906,-3.271484 0.0981,-0.133923 0.204786,-0.252169 0.322266,-0.359375 0.405276,-0.369675 0.906469,-0.578968 1.423828,-0.609375 z m -14.25586,2.519531 c 2.019235,0.114958 3.950274,0.797864 5.746094,1.828125 L 34.925781,82.867187 C 31.529979,79.744734 29.980401,75.1418 30.701172,70.447266 l 0.07227,-0.46875 0.107422,-0.494141 c 0.466631,-2.140685 1.390356,-4.252601 2.798828,-6.175781 1.408465,-1.923165 3.142885,-3.44425 5.042969,-4.535157 l 0.410156,-0.234375 0.455079,-0.226562 c 2.347555,-1.159878 4.890675,-1.690042 7.371093,-1.548828 z m -4.324218,1.15039 -1.060547,0.957032 c -0.138668,0.125168 -0.264986,0.267011 -0.376953,0.419922 -0.903113,1.233138 -0.633736,2.983419 0.599609,3.886718 1.233149,0.903136 2.985378,0.633783 3.888672,-0.599609 0.903117,-1.233147 0.633757,-2.985382 -0.59961,-3.888672 -0.642399,-0.470484 -1.395669,-0.53023 -2.125,-0.394531 z m 13.501953,2.933594 18.339843,13.433594 c 1.195511,0.875575 1.443705,2.480555 0.56836,3.675781 l -2.398438,3.279297 7.763672,5.685547 c 1.080847,0.791578 1.297426,2.188699 0.50586,3.269531 -0.791544,1.080801 -2.190906,1.297233 -3.271485,0.50586 l -7.763672,-5.685547 -4.585937,6.257812 7.765625,5.6875 c 1.080853,0.791576 1.297422,2.188708 0.505859,3.269529 -0.791584,1.08087 -2.188697,1.29744 -3.269531,0.50586 l -7.765625,-5.687498 -2.400391,3.279297 c -0.875398,1.19529 -2.482203,1.441977 -3.677734,0.566406 L 38.111328,85.458984 Z m -12.69336,0.08203 c 0.0071,0.0052 0.007,-10e-4 0.002,0.0059 2.13e-4,-2.9e-4 -0.0016,0.0018 -0.0039,0.0039 h -0.002 c 0.0013,-0.0016 0.0025,-1.54e-4 0,-0.002 -0.0071,-0.0052 -0.007,10e-4 -0.002,-0.0059 0.0052,-0.0072 -10e-4,-0.007 0.0059,-0.002 z m -9.234375,9.623047 c -0.62202,0.03558 -1.230025,0.279399 -1.71289,0.714844 -0.138985,0.125348 -0.266916,0.265027 -0.378907,0.417969 -0.903644,1.233888 -0.631903,2.985283 0.601563,3.888672 1.234009,0.903765 2.985828,0.631207 3.888672,-0.601563 0.903118,-1.233145 0.633724,-2.983424 -0.59961,-3.886719 -0.539983,-0.395464 -1.176807,-0.56878 -1.798828,-0.533203 z m 0.150391,2.775391 c 0.0048,-0.0065 -0.0019,-0.0057 0.0059,0 0.0072,0.0053 0.0056,-0.0038 0,0.0039 2.08e-4,-2.83e-4 -0.0013,0.0016 -0.0039,0.0039 -0.01077,0.0097 0.007,0.0012 0,-0.0039 -0.0071,-0.0052 -0.007,0.003 -0.002,-0.0039 z m 1.132812,16.037109 c 0.51718,-0.0303 1.050555,0.118514 1.523438,0.464844 l 12.542969,9.1875 c 1.080831,0.791573 1.297421,2.188713 0.505859,3.269533 -0.79157,1.08084 -2.188719,1.29743 -3.269531,0.50586 L 34.251953,93.605469 c -1.080799,-0.791541 -1.29722,-2.188982 -0.505859,-3.269532 0.09787,-0.133597 0.204862,-0.254191 0.322265,-0.361328 0.405274,-0.369673 0.906649,-0.579069 1.423828,-0.609376 z"
             id="path39171"
             sodipodi:nodetypes="cccccccscccccccccccccccccccscscccsccccscccccscccccccccccccsccsccccsscccccscccssccccsscccccccsccccsccccccccccccccssccscsccccccsccsccccs" />
          <path
             style="color:#000000;fill:#a3c738;stroke-width:2.78617;-inkscape-stroke:none;paint-order:markers stroke fill"
             d="m 35.875362,51.945945 c -0.0339,0.027 -0.06365,0.05749 -0.09012,0.0929 -0.113248,0.151213 -0.142751,0.352151 -0.05563,0.5409 l 2.300004,4.986171 c -2.067271,1.186894 -3.949098,2.837883 -5.473031,4.918712 -1.523925,2.080824 -2.530119,4.373118 -3.037815,6.702194 l -5.447805,-0.687564 c -0.206237,-0.02611 -0.388187,0.06252 -0.498336,0.215987 -0.05148,0.0716 -0.082,0.151408 -0.09361,0.243344 -0.03824,0.301907 0.157191,0.553078 0.459803,0.591475 l 5.38558,0.685385 c -0.865427,5.636711 1.151864,11.349055 5.779603,14.746758 L 54.773809,58.123867 C 50.138013,54.73724 44.083347,54.538139 38.970584,57.064248 l -2.278859,-4.927514 c -0.127915,-0.27697 -0.426185,-0.387195 -0.7026,-0.25951 -0.04213,0.01946 -0.07981,0.04191 -0.113772,0.06885 z m 6.632614,7.959952 c 0.477504,-0.430598 1.217845,-0.4853 1.754324,-0.09239 0.613117,0.449033 0.748766,1.328157 0.299724,1.941294 -0.449023,0.613113 -1.328161,0.748757 -1.941284,0.299717 -0.613116,-0.449045 -0.748759,-1.328163 -0.299723,-1.941291 0.05609,-0.0766 0.118759,-0.145819 0.186935,-0.207358 z m -9.079039,12.396071 c 0.477482,-0.430591 1.218388,-0.485832 1.754872,-0.09293 0.613114,0.449045 0.748768,1.32816 0.299726,1.941296 -0.449025,0.613112 -1.328173,0.74983 -1.941292,0.300793 -0.613116,-0.449045 -0.749297,-1.32871 -0.300278,-1.941826 0.05609,-0.0766 0.11876,-0.145819 0.186971,-0.207337 z M 58.852282,53.824107 c -0.183987,0.167898 -0.354341,0.356046 -0.507875,0.565635 -1.228196,1.677014 -0.871062,3.989616 0.805934,5.217807 l 12.543472,9.186434 c 1.677007,1.228172 3.989078,0.870512 5.217258,-0.806489 1.228177,-1.676992 0.871048,-3.988535 -0.805948,-5.216724 L 63.561658,53.58433 c -1.467384,-1.074646 -3.42119,-0.935239 -4.709372,0.239781 z m -3.017653,5.076631 -19.66981,26.858338 19.465562,14.255794 c 1.798627,1.31726 4.307131,0.93017 5.624377,-0.868431 l 1.577466,-2.154416 6.640753,4.863887 c 1.677005,1.2282 3.988532,0.87106 5.216718,-0.80596 1.228182,-1.676996 0.871057,-3.988531 -0.805959,-5.216714 l -6.640742,-4.863891 2.938483,-4.011334 6.640215,4.86334 c 1.677016,1.228181 3.989079,0.870514 5.217261,-0.806487 1.228181,-1.677002 0.871066,-3.988543 -0.805943,-5.216732 l -6.640228,-4.863324 1.576926,-2.153882 c 1.31725,-1.798618 0.929094,-4.307137 -0.869506,-5.624407 z M 33.130141,88.946136 c -0.183988,0.167899 -0.354883,0.356579 -0.50843,0.56618 -1.228181,1.676998 -0.870505,3.989078 0.806498,5.217259 L 45.971678,103.916 c 1.67699,1.2282 3.988529,0.87106 5.216708,-0.80594 1.228183,-1.677 0.871042,-3.988536 -0.805947,-5.216719 L 37.838967,88.706907 c -1.467368,-1.074671 -3.420635,-0.935786 -4.708817,0.239239 z"
             id="path39173" />
        </g>
        <g
           id="rect3981-7-5">
          <path
             style="color:#000000;fill:#ffffff;-inkscape-stroke:none;paint-order:markers stroke fill"
             d="m 65.222656,44.744141 c -0.103192,-0.01091 -0.214388,-0.0084 -0.320312,0.0078 -0.433927,0.06615 -0.847174,0.388902 -1.003907,0.826172 l -0.970703,2.703125 c -1.408245,-0.266271 -2.879904,-0.352087 -4.388672,-0.105469 -1.508564,0.246586 -2.874939,0.797381 -4.125,1.498047 l -1.78125,-2.253906 c -0.287395,-0.364124 -0.782688,-0.539404 -1.21289,-0.464844 -0.206113,0.03556 -0.415436,0.135509 -0.56836,0.255859 -0.514092,0.405751 -0.615279,1.270901 -0.210937,1.783204 l 1.708984,2.166015 c -2.78262,2.447476 -4.367908,6.030214 -3.777343,9.789063 l -0.0078,0.002 0.0078,0.04687 c 1.07e-4,6.61e-4 -1.08e-4,0.0013 0,0.002 l 0.107421,0.658203 c -0.54864,-0.433144 -1.20147,-0.744484 -1.927734,-0.771484 -0.22396,-0.0083 -0.453139,0.0053 -0.683594,0.04297 -1.835458,0.300019 -3.092955,2.049502 -2.792968,3.884766 l 1.654296,10.126953 c 0.299981,1.835237 2.049539,3.092947 3.884766,2.792969 0.962426,-0.157315 1.74662,-0.724638 2.25,-1.482422 l 0.216797,1.320313 c 0.316952,1.939015 2.166283,3.270095 4.105469,2.953125 l 0.832031,-0.136719 0.728516,4.455078 c 0.299977,1.835249 2.047587,3.092953 3.882812,2.792969 1.835238,-0.299982 3.092949,-2.049535 2.792969,-3.884766 l -0.726563,-4.455078 1.423828,-0.232422 0.728516,4.455078 c 0.300018,1.835464 2.049505,3.092955 3.884766,2.792969 1.835231,-0.299984 3.090998,-2.04953 2.791015,-3.884766 l -0.726562,-4.455078 0.830078,-0.134765 c 1.939251,-0.316984 3.270072,-2.166448 2.953125,-4.105469 l -0.216797,-1.320313 c 0.718634,0.558193 1.642892,0.844841 2.605469,0.6875 1.835234,-0.29998 3.09295,-2.049535 2.792969,-3.884765 L 78.308594,59.087891 c -0.262521,-1.606037 -1.62484,-2.777332 -3.201172,-2.835938 -0.223889,-0.0083 -0.453425,0.0054 -0.683594,0.04297 -0.962524,0.15733 -1.746509,0.724541 -2.25,1.482422 l -0.101562,-0.619141 c -6.89e-4,-0.0042 -0.0032,-0.0075 -0.0039,-0.01172 l -0.0059,-0.03711 h -0.0059 C 71.41939,53.358236 68.774413,50.467146 65.357347,49.033202 l 0.929687,-2.597656 c 0.139237,-0.388533 0.03769,-0.833127 -0.208012,-1.173011 0,0 -0.195457,-0.197292 -0.356086,-0.334974 -0.206522,-0.107086 -0.50028,-0.18342 -0.50028,-0.18342 z m -6.386719,5.248046 c 1.552665,-0.253793 3.073543,-0.168143 4.472657,0.197266 l 0.300781,0.07813 0.318359,0.105469 c 2.977518,0.979296 5.222692,3.266097 6.044922,6.197265 L 50.375,59.775391 c -0.15422,-3.040792 1.244901,-5.924222 3.755859,-7.800782 l 0.25586,-0.191406 0.27539,-0.179687 c 1.209929,-0.791873 2.621148,-1.357531 4.173828,-1.611329 z m 5.769532,1.5625 c -0.123231,-0.0052 -0.247855,0.0014 -0.371094,0.02148 -0.995569,0.162732 -1.68034,1.113603 -1.517578,2.109375 0.162734,0.995572 1.113605,1.678387 2.109375,1.515625 0.995574,-0.162735 1.678388,-1.111649 1.515625,-2.107422 -0.08735,-0.534379 -0.432164,-0.913814 -0.857422,-1.185547 v -0.316406 z m -10.007813,1.634766 c -0.123553,-0.0053 -0.249827,0.0033 -0.373047,0.02344 -0.996166,0.162837 -1.678403,1.113502 -1.515625,2.109375 0.162853,0.996263 1.114103,1.678305 2.109375,1.515625 0.995572,-0.162735 1.678386,-1.113606 1.515625,-2.109375 -0.142517,-0.871903 -0.878861,-1.502294 -1.736328,-1.539063 z m 9.931641,0.197266 c 0.0058,-9.43e-4 0.003,-0.0036 0.0039,0.002 9.42e-4,0.0058 0.0017,0.003 -0.0039,0.0039 h -0.002 v -0.002 c -9.44e-4,-0.0058 -0.0036,-0.003 0.002,-0.0039 z m -10.007813,1.634765 c 0.0053,-8.6e-4 9.31e-4,-0.0023 0.002,0.0039 l -0.002,0.002 c 5.21e-4,-8.5e-5 -0.0015,1.03e-4 -0.0039,0 l 0.002,-0.002 c -9.41e-4,-0.0058 -0.0036,-0.003 0.002,-0.0039 z m 20.517578,3.06836 c 0.723584,0.0269 1.330307,0.531601 1.455079,1.294922 l 1.654296,10.126953 c 0.142635,0.872612 -0.400844,1.630806 -1.273437,1.773437 -0.872583,0.142631 -1.630839,-0.403006 -1.773438,-1.27539 l -1.65625,-10.126954 c -0.142594,-0.872366 0.40296,-1.630833 1.275391,-1.773437 0.108307,-0.01768 0.213688,-0.02342 0.318359,-0.01953 z m -4.49414,1.130859 2.419922,14.808594 c 0.157768,0.965196 -0.466681,1.836411 -1.431641,1.99414 l -2.646484,0.431641 1.023437,6.269531 c 0.142637,0.872624 -0.400836,1.628851 -1.273437,1.771485 -0.872583,0.142629 -1.63084,-0.401046 -1.773438,-1.273438 l -1.02539,-6.269531 -5.052735,0.826172 1.023438,6.269531 c 0.142636,0.872625 -0.400832,1.630804 -1.273438,1.773438 -0.87262,0.142637 -1.630805,-0.402777 -1.773437,-1.275391 l -1.025391,-6.269531 -2.646484,0.433593 C 54.124818,78.868676 53.25543,78.242558 53.097656,77.277344 L 50.675781,62.46875 Z m -23.861328,3.503906 c 0.723577,0.0269 1.328316,0.531351 1.453125,1.294922 l 1.65625,10.126953 c 0.142634,0.872609 -0.402789,1.630805 -1.275391,1.773438 -0.872618,0.142634 -1.628853,-0.402791 -1.771484,-1.275391 l -1.65625,-10.126953 c -0.142629,-0.872579 0.403009,-1.630841 1.27539,-1.773437 0.108025,-0.01764 0.213754,-0.02342 0.31836,-0.01953 z"
             id="path39163"
             sodipodi:nodetypes="ccccsccccccccccccsccscccccsccccscccccscccccsccccccccsccccccccsccssscccscssssssscccscccccccsccscccscccccsccccsccccccsccscccss" />
          <path
             style="color:#000000;fill:#a3c738;stroke-width:1.83885;-inkscape-stroke:none;paint-order:markers stroke fill"
             d="m 65.125626,45.658095 c -0.02839,-0.003 -0.05661,-0.0024 -0.08539,0.0021 -0.123254,0.01879 -0.230098,0.09974 -0.276392,0.228896 l -1.223801,3.411186 c -1.522217,-0.39756 -3.171801,-0.490863 -4.851754,-0.216263 -1.679954,0.274601 -3.213989,0.888246 -4.530392,1.749804 l -2.2465,-2.84375 c -0.085,-0.107693 -0.211654,-0.150138 -0.3345,-0.128847 -0.05738,0.0099 -0.108632,0.03335 -0.156638,0.07125 -0.15766,0.124434 -0.181851,0.333076 -0.0571,0.491136 l 2.218205,2.813936 c -3.014853,2.253144 -4.707678,5.875396 -4.100898,9.615588 L 71.164294,57.30855 c -0.615695,-3.738737 -3.373831,-6.633265 -6.949193,-7.80919 l 1.206624,-3.373792 c 0.06793,-0.189555 -0.02159,-0.379418 -0.210706,-0.447177 -0.02879,-0.01032 -0.05701,-0.0172 -0.08539,-0.02022 z m -0.559858,6.815294 c 0.423965,0.01818 0.797785,0.334904 0.868587,0.768035 0.08091,0.495001 -0.261913,0.971597 -0.75692,1.05251 -0.495003,0.08091 -0.971597,-0.261911 -1.05251,-0.756918 -0.08091,-0.495006 0.261914,-0.971597 0.75692,-1.052509 0.06188,-0.01011 0.123357,-0.01371 0.183923,-0.01114 z m -10.008193,1.635612 c 0.423963,0.01818 0.798293,0.334904 0.86909,0.768032 0.08091,0.495006 -0.261911,0.9716 -0.756917,1.052513 -0.495004,0.08091 -0.9721,-0.261411 -1.053015,-0.756415 -0.08091,-0.495006 0.261916,-0.972103 0.756917,-1.053018 0.06188,-0.01011 0.123357,-0.01371 0.183925,-0.01111 z m 20.515609,3.062028 c -0.16428,-0.0061 -0.331499,0.0037 -0.500737,0.03133 -1.353931,0.221308 -2.255589,1.475169 -2.034281,2.829094 l 1.655316,10.126938 c 0.22131,1.35392 1.475168,2.255083 2.829094,2.033773 1.353915,-0.221306 2.255083,-1.474666 2.033775,-2.828589 L 77.401033,59.236639 c -0.193646,-1.18468 -1.17789,-2.022856 -2.327849,-2.06561 z m -3.768926,0.993899 -21.683829,3.544578 2.568871,15.715395 c 0.237363,1.452116 1.597293,2.430296 3.0494,2.192941 l 1.739194,-0.284478 0.876165,5.361589 c 0.221305,1.353933 1.474665,2.255086 2.828589,2.033775 1.353923,-0.221308 2.255083,-1.474663 2.033775,-2.828592 l -0.876165,-5.361585 3.238881,-0.529034 0.876165,5.361082 c 0.221308,1.353929 1.475171,2.255084 2.829094,2.033776 1.353918,-0.221309 2.255086,-1.474661 2.033776,-2.828592 l -0.876168,-5.36108 1.738691,-0.284475 c 1.452107,-0.237357 2.429793,-1.597797 2.192435,-3.049907 z m -24.586694,3.641087 c -0.164283,-0.0061 -0.332005,0.0037 -0.501245,0.03133 -1.353921,0.221308 -2.255084,1.475174 -2.033776,2.829097 l 1.655318,10.126935 c 0.221306,1.35392 1.474663,2.255081 2.828587,2.033775 1.353923,-0.221308 2.255083,-1.474671 2.033775,-2.828589 L 49.044908,63.871623 C 48.851267,62.68694 47.867525,61.848767 46.717564,61.806015 Z"
             id="path39165" />
        </g>
        <path
           id="ellipse3033"
           style="fill:#ffffff;fill-opacity:1;stroke-width:1.07912"
           inkscape:transform-center-x="7.6450725"
           inkscape:transform-center-y="39.98308"
           d="m 410.84766,83.496094 c -0.25762,-0.02308 -0.51534,-0.01291 -0.77539,0.03125 -1.11357,0.189052 -2.06632,0.934614 -2.4668,2.111328 L 397.01562,116.7168 c -13.84709,-3.37967 -28.80445,-3.98409 -43.98242,-1.25196 -15.17797,2.73214 -28.98589,8.51555 -40.78515,16.51172 l -20.76172,-25.43554 c -0.7857,-0.9632 -1.93919,-1.32793 -3.04883,-1.11719 -0.51827,0.099 -0.97882,0.31964 -1.4082,0.66992 -1.41004,1.15018 -1.60036,3.04148 -0.44727,4.45508 l 20.50391,25.16797 c -26.98213,20.84931 -41.79125,53.90878 -35.75,87.70117 l 195.91015,-35.26563 c -6.12173,-33.77789 -31.52903,-59.59698 -64.08789,-69.72851 l 10.44141,-30.738283 c 0.58768,-1.726961 -0.25194,-3.433232 -1.97461,-4.019531 -0.26228,-0.08927 -0.51973,-0.146844 -0.77734,-0.169922 z m -4.08008,61.816406 c 3.84315,0.10296 7.27606,2.91686 7.98047,6.83008 0.805,4.47224 -2.23089,8.84145 -6.70313,9.64648 -4.47224,0.80504 -8.83949,-2.23088 -9.64453,-6.70312 -0.80504,-4.47226 2.23089,-8.84145 6.70313,-9.64649 0.55903,-0.10063 1.11504,-0.14166 1.66406,-0.12695 z m -90.41797,16.27734 c 3.84317,0.10296 7.27411,2.91686 7.97851,6.83008 0.80504,4.47225 -2.22891,8.8395 -6.70117,9.64453 -4.47224,0.80503 -8.84145,-2.23088 -9.64648,-6.70312 -0.80504,-4.47226 2.23088,-8.8395 6.70312,-9.64453 0.55904,-0.10063 1.117,-0.14166 1.66602,-0.12696 z m 186.28711,24.7461 c -1.48903,-0.0314 -3.00612,0.0841 -4.53516,0.35937 -12.23236,2.2019 -20.21363,13.68758 -18.01172,25.91992 l 16.46875,91.4961 c 2.20188,12.23236 13.6876,20.21362 25.91993,18.01172 12.23236,-2.20191 20.21359,-13.68756 18.01171,-25.91993 l -16.4707,-91.49609 c -1.92664,-10.7033 -10.95959,-18.15128 -21.38281,-18.37109 z m -33.99805,9.55273 -195.91015,35.26563 25.55859,141.98632 c 2.36159,13.11946 14.82585,21.78156 27.94531,19.41993 L 474.7793,365.82031 c 13.11946,-2.3616 21.77957,-14.8239 19.41797,-27.94336 z m -222.1914,36.5625 c -1.48904,-0.0314 -3.00612,0.0861 -4.53516,0.36133 -12.23235,2.20191 -20.21362,13.68758 -18.01172,25.91992 l 16.46875,91.4961 c 2.20191,12.23236 13.68758,20.21361 25.91992,18.01171 12.23236,-2.2019 20.21363,-13.68755 18.01172,-25.91992 l -16.46875,-91.49609 c -1.92666,-10.7033 -10.96154,-18.15323 -21.38476,-18.37305 z"
           transform="scale(0.26458333)" />
      </g>
      <g
         id="g28301"
         transform="translate(0.12592385,1.9903846)">
        <path
           style="fill:#4c3221;fill-opacity:1;stroke:none;stroke-width:0.264583px;stroke-linecap:butt;stroke-linejoin:miter;stroke-opacity:1"
           d="m 187.18269,82.806489 c 0,0 3.9285,5.71786 3.9285,13.962895 0,8.245036 -5.69964,17.965486 -9.004,21.086276 -3.30436,3.12079 -1.40741,-12.116 -1.40741,-12.116 z"
           id="path5256"
           sodipodi:nodetypes="csscc" />
        <path
           style="fill:#816326;fill-opacity:1;stroke:none;stroke-width:0.264583px;stroke-linecap:butt;stroke-linejoin:miter;stroke-opacity:1"
           d="m 187.18612,105.73966 c 0,0 0.7955,2.38648 -1.10145,5.50727 -1.89695,3.12079 -3.42675,9.36237 -10.40263,11.68766 -6.97588,2.32529 -7.77138,0.85669 -11.99362,0.91788 -4.22225,0.0612 -6.73111,1.28503 -10.5862,1.22384 -3.8551,-0.0612 -11.56528,-0.55073 -14.99203,-0.61192 -3.42675,-0.0612 -16.22077,-0.88747 -18.73038,-0.71439 -2.50962,0.17308 -7.74519,-0.12981 -11.55289,1.42788 -3.80769,1.5577 -7.74519,1.60096 -16.701921,0.21635 -8.95673,-1.38462 -15.858924,-2.52083 -17.572296,-2.33725 -1.713373,0.18357 -3.610325,0.0612 -6.853497,1.71337 -3.243173,1.65218 -3.977476,0.7343 -5.262507,0.12239 -1.285028,-0.61193 -5.568466,-1.5298 -10.76978,-1.16265 -5.201314,0.36715 -7.805612,3.39164 -19.948569,0.12238 -15.909902,-4.28343 -11.995819,-11.4669 -11.995819,-11.4669 l 15.546699,4.96058 134.30769,-3.11538 z"
           id="path14081"
           sodipodi:nodetypes="cssssssssssssscccc" />
        <rect
           style="fill:#b99a5d;fill-opacity:1;fill-rule:evenodd;stroke:none;stroke-width:1.00316;stroke-linecap:round;paint-order:markers fill stroke;stop-color:#000000"
           id="rect16029"
           width="179.41251"
           height="52.420052"
           x="10.625959"
           y="69.772247"
           ry="26.210026" />
        <path
           style="fill:#b39456;fill-opacity:1;stroke:none;stroke-width:0.264583px;stroke-linecap:butt;stroke-linejoin:miter;stroke-opacity:1"
           d="m 16.521822,108.61568 c 0,0 6.180385,-3.67152 7.404224,-3.85509 1.223838,-0.18358 3.549131,-0.67311 5.690848,0.79549 2.141718,1.46861 4.956548,4.03867 7.710184,4.28344 2.753637,0.24477 15.420368,1.59099 16.032286,1.4686 0.611921,-0.12238 21.020442,-0.14947 22.31852,-0.0629 1.298077,0.0865 19.659147,-1.09971 19.659147,-1.09971 0,0 5.480279,-0.2849 7.037969,0.018 1.55769,0.30289 10.86057,-1.55769 12.28846,-1.90385 1.42788,-0.34615 17.05218,-3.40723 19.62223,-0.59241 2.57007,2.81484 4.28344,4.13046 5.62966,4.37523 1.34623,0.24477 5.25292,-1.40301 5.25292,-1.40301 0,0 1.34134,-2.16346 4.84615,-0.21634 3.50481,1.94711 13.41346,-0.86539 15.44712,-1.60097 2.03365,-0.73557 10.99038,-4.24038 14.49519,-3.07211 3.50481,1.16827 6.7815,2.95805 6.7815,2.95805 l -0.51923,0.95193 c 0,0 -2.75746,-2.65517 -8.03631,-2.74171 -5.27885,-0.0865 -15.27404,5.79808 -18.12981,5.71154 -2.85577,-0.0865 -8.57225,-0.25083 -12.0296,0.0857 -3.45734,0.33655 -8.26091,0.94847 -11.65706,-1.31563 -3.39615,-2.2641 -2.79411,-3.70279 -18.80372,-1.66914 -16.00962,2.03365 -22.715004,1.45497 -22.715004,1.45497 0,0 -24.599159,1.46861 -30.473583,1.34622 -5.874425,-0.12238 -28.417181,2.04496 -33.609489,-0.76754 -5.192309,-2.8125 -7.39904,-3.54807 -13.413462,0.0865 -1.211539,-1.73077 -0.82914,-3.23528 -0.82914,-3.23528 z"
           id="path1105"
           sodipodi:nodetypes="cssssccsssscsssccscssscssccc" />
        <path
           style="fill:#b79256;fill-opacity:1;stroke:none;stroke-width:0.264583px;stroke-linecap:butt;stroke-linejoin:miter;stroke-opacity:1"
           d="m 13.704123,83.623448 c 0,0 -2.986349,6.723396 -2.986349,10.46584 0,3.742441 -0.335099,8.946922 4.494142,16.772362 2.762042,4.47569 4.792481,5.1805 4.792481,5.1805 0,0 -4.522838,-4.9176 -6.113828,-15.19785 -1.590991,-10.280241 0.856687,-15.481555 0.856687,-15.481555 l -0.114737,-0.795493 z"
           id="path2538"
           sodipodi:nodetypes="csscsccc" />
      </g>
      <g
         id="g34982"
         transform="translate(0.09870385,1.7307692)">
        <path
           style="fill:#a8c139;fill-opacity:1;stroke:none;stroke-width:0.264583px;stroke-linecap:butt;stroke-linejoin:miter;stroke-opacity:1"
           d="m 21.631348,75.572037 -1.774566,0.06119 c 0,0 -0.45894,-0.122383 -1.927546,1.223841 -1.468606,1.346221 -3.090192,3.243172 -3.090192,3.243172 0,0 -1.315627,0.948473 -1.162647,1.74397 0.15298,0.795493 -0.581323,4.252838 2.141717,8.322103 2.723041,4.069263 6.314097,8.227917 6.314097,8.227917 l 7.701922,2.98558 c 0,0 2.487983,1.34134 5.603367,1.2548 3.115384,-0.0865 4.673812,-0.2911 4.673812,-0.2911 0,0 9.433154,-1.08444 11.238317,-1.02325 1.805162,0.0612 28.741716,-3.099107 28.741716,-3.099107 0,0 4.475906,3.969377 14.572575,3.785797 10.09667,-0.18357 26.74954,0.45459 29.86493,0.84401 3.11538,0.38942 15.72049,1.99771 19.64423,1.38462 4.15385,-0.64904 16.35576,-1.125 22.41346,-3.02885 5.71287,-1.795474 7.00961,-3.288461 7.00961,-3.288461 l 5.14904,-3.072117 c 0,0 3.46154,-3.072114 4.45673,-4.97596 0.99519,-1.903847 2.63942,-3.9375 2.63942,-3.9375 0,0 2.55289,-2.682693 0.86539,-5.495192 -1.6875,-2.8125 -6.49039,-5.581732 -6.49039,-5.581732 l -6.59869,11.429274 H 23.864854 Z"
           id="path17802"
           sodipodi:nodetypes="ccscssccccscssssccscscccc" />
        <path
           style="fill:#deeab4;fill-opacity:1;stroke:none;stroke-width:0.264583px;stroke-linecap:butt;stroke-linejoin:miter;stroke-opacity:1"
           d="m 15.533654,84.548077 c 0,0 -1.081731,2.249998 2.509615,6.620192 3.591346,4.370192 4.456731,5.971154 2.769231,9.605771 3.575006,2.59435 9.021633,0.60577 9.021633,0.60577 0,0 5.516827,-1.16827 14.257213,-0.21635 8.740383,0.95192 18.389423,-0.30288 18.389423,-0.30288 0,0 5.564661,-0.19985 8.74664,0.47326 3.18198,0.67311 6.853497,1.16265 10.525011,1.22384 3.671517,0.0612 8.50568,-1.04026 8.50568,-1.04026 0,0 5.507273,-1.22384 7.343031,-1.16265 1.835759,0.0612 45.317139,0 45.317139,0 0,0 7.36911,1.16265 10.5511,0.85669 3.18198,-0.30596 13.09507,-2.386491 17.01135,-2.325298 3.91629,0.06119 7.31255,0.762873 8.65389,-4.126548 1.37221,-5.001907 2.63943,-7.615384 3.89424,-9.951923 0.83534,-1.555462 -16.70193,7.269231 -16.70193,7.269231 L 25.182692,90.692308 Z"
           id="path20551"
           sodipodi:nodetypes="csccscsscscssssccc" />
        <path
           style="fill:#362317;fill-opacity:1;stroke:none;stroke-width:0.264583px;stroke-linecap:butt;stroke-linejoin:miter;stroke-opacity:1"
           d="m 108.76866,66.638013 c 0,0 -10.892164,-1.529797 -13.217457,-1.713373 -2.325293,-0.183576 -5.724281,-0.280411 -14.854089,0.238821 -9.129808,0.519232 -21.799878,0.893231 -21.799878,0.893231 0,0 -4.497607,0.305959 -10.249648,1.101455 -5.752045,0.795493 -12.177197,1.59099 -12.177197,1.59099 0,0 -4.314031,0.581324 -7.924355,2.111121 -3.610324,1.529797 -8.26091,4.497607 -10.035476,7.006476 -1.774567,2.508869 -5.183637,6.421726 -0.856714,12.176535 4.326923,5.754806 17.004808,6.663459 17.004808,6.663459 0,0 2.76923,0.302888 4.975961,0.04327 2.20673,-0.259614 11.250001,1.168271 11.250001,1.168271 l 7.78846,1.471152 35.39423,-2.466345 H 158.91545 L 171.36553,84.472991 V 73.613895 l -2.77449,-4.805566 -5.83383,-2.454965 c 0,0 -13.63247,0.529418 -17.48756,0.835377 -3.85509,0.305961 -17.01136,0.550727 -21.17241,0.183575 -4.16105,-0.367151 -15.32858,-0.734303 -15.32858,-0.734303 z"
           id="path31560" />
        <path
           style="fill:#342319;fill-opacity:1;stroke:none;stroke-width:0.264583px;stroke-linecap:butt;stroke-linejoin:miter;stroke-opacity:1"
           d="m 88.485577,98.610575 c 0,0 2.033653,1.817305 6.966344,2.076925 4.932689,0.25962 46.211539,0.21635 55.471159,-1.168269 9.25961,-1.384618 13.67307,-2.596155 13.67307,-2.596155 L 162,93.115383 94.067306,96.923076 Z"
           id="path22716" />
        <path
           style="fill:#0a0707;fill-opacity:1;stroke:none;stroke-width:0.264583px;stroke-linecap:butt;stroke-linejoin:miter;stroke-opacity:1"
           d="m 24.170813,74.562368 3.120788,-0.152979 c 0,0 -4.436414,3.610324 -4.436414,6.91469 0,3.304362 2.325293,5.568465 4.283435,5.843828 1.958141,0.275365 7.924355,-0.244766 8.536276,3.487941 0.611917,3.732707 -0.642517,6.516941 -4.589397,6.516941 -3.946879,0 -10.15786,-3.579727 -11.504083,-5.109527 -1.346222,-1.529797 -3.916283,-3.059597 -2.661849,-7.465415 1.254435,-4.40582 1.835758,-4.987144 7.251244,-10.035479 z"
           id="path24593" />
        <path
           style="fill:#100a09;fill-opacity:1;stroke:none;stroke-width:0.264583px;stroke-linecap:butt;stroke-linejoin:miter;stroke-opacity:1"
           d="m 60.51882,66.362651 c 0,0 6.210982,-0.09179 11.595872,0.489534 5.38489,0.581324 11.657063,-0.520131 11.657063,-0.520131 0,0 3.885689,-1.529797 6.76171,-0.67311 2.876021,0.856686 6.97588,0.795493 6.97588,0.795493 0,0 11.014545,0.948476 13.186855,1.193245 2.17232,0.244766 14.56369,1.468606 14.56369,1.468606 l 9.48475,0.82609 c 0,0 -11.3817,-0.428344 -17.56209,0.336556 -6.18038,0.7649 -12.9115,1.682779 -20.835853,0.397748 -7.924356,-1.285031 -9.423556,-2.080525 -15.481559,-1.468607 -6.058001,0.61192 -7.523793,-0.799423 -10.314657,-1.188844 -2.790867,-0.389425 -10.031661,-1.65658 -10.031661,-1.65658 z"
           id="path26626" />
        <path
           style="fill:#261816;fill-opacity:1;stroke:none;stroke-width:0.264583px;stroke-linecap:butt;stroke-linejoin:miter;stroke-opacity:1"
           d="m 162.75721,66.353364 c 0,0 10.78311,2.120408 15.31131,5.9755 4.52821,3.855091 7.83257,7.281839 5.3237,11.565276 -2.50887,4.283435 -3.73271,4.344625 -3.73271,4.344625 0,0 -1.34622,2.631255 -3.7327,4.222245 -2.38649,1.59099 -12.54435,4.956545 -13.33985,5.201314 -0.79549,0.244769 -2.2641,-0.244769 -2.2641,-0.244769 l -43.14979,1.32283 -30.09695,0.390546 c 0,0 -17.035725,1.156669 -24.394303,0.868163 -2.742397,-0.107521 -8.282188,-1.480083 -8.282188,-1.480083 0,0 13.339839,-4.344628 15.297981,-5.38489 1.958144,-1.040263 10.096669,-4.834163 14.624872,-3.426749 4.528204,1.407414 7.5878,2.631255 12.177194,2.019335 4.589394,-0.611921 11.993624,-2.141718 16.093484,-1.5298 4.09985,0.61192 14.14242,1.706938 14.14242,1.706938 0,0 6.27403,1.038461 11.16346,-0.865386 4.88942,-1.903843 5.66827,-0.389421 9.08654,-2.769229 3.41826,-2.379808 8.0048,-7.182692 12.98076,-6.317308 4.97597,0.865385 7.85253,1.085529 8.15849,-1.209167 0.30596,-2.294697 0.58133,-5.660253 -1.56039,-9.117598 -2.14172,-3.457344 -3.80723,-5.271793 -3.80723,-5.271793 z"
           id="path28531"
           sodipodi:nodetypes="csscsscccscsssscsssssc" />
      </g>
    </g>
  </g>
</svg>
