<?xml version="1.0" encoding="utf-8"?>
<!-- Generator: Adobe Illustrator 23.0.1, SVG Export Plug-In . SVG Version: 6.00 Build 0)  -->
<svg version="1.1" id="Text" xmlns="http://www.w3.org/2000/svg" xmlns:xlink="http://www.w3.org/1999/xlink" x="0px" y="0px"
	 width="457px" height="457px" viewBox="0 0 457 457" enable-background="new 0 0 457 457" xml:space="preserve">
<g>
	
		<linearGradient id="SVGID_1_" gradientUnits="userSpaceOnUse" x1="228.5" y1="464.9144" x2="228.5" y2="135.9861" gradientTransform="matrix(1 0 0 -1 0 459)">
		<stop  offset="0" style="stop-color:#4283F2"/>
		<stop  offset="1" style="stop-color:#073042"/>
	</linearGradient>
	<circle fill="url(#SVGID_1_)" cx="228.5" cy="228.5" r="200.193"/>
	<g>
		<defs>
			<circle id="SVGID_2_" cx="228.5" cy="228.5" r="200.193"/>
		</defs>
		<clipPath id="SVGID_3_">
			<use xlink:href="#SVGID_2_"  overflow="visible"/>
		</clipPath>
		<g clip-path="url(#SVGID_3_)">
			<g>
				
					<radialGradient id="SVGID_4_" cx="228.9494" cy="481.0439" r="248.6982" gradientTransform="matrix(1 0 0 -1 0 459)" gradientUnits="userSpaceOnUse">
					<stop  offset="0.828" style="stop-color:#ACC6F2"/>
					<stop  offset="1" style="stop-color:#4283F2;stop-opacity:0"/>
				</radialGradient>
				<circle fill="url(#SVGID_4_)" cx="228.949" cy="-22.044" r="248.698"/>
				<path fill="#F8FF5C" d="M167.712,160.076l2.255-6.695c13.926,78.201,50.893,284.659,50.893,50.379
					c0-0.974,0.724-1.812,1.617-1.812h12.707c0.897,0,1.625,0.828,1.625,1.806C236.607,614.056,167.712,160.076,167.712,160.076
					L167.712,160.076z"/>
				<path d="M131.181,153.105l-33.198,57.501c-1.907,3.302-0.775,7.525,2.527,9.432c3.302,1.907,7.525,0.775,9.432-2.527
					l33.618-58.226c54.322,24.351,116.456,24.351,170.778,0l33.618,58.226c1.974,3.262,6.219,4.307,9.481,2.333
					c3.169-1.917,4.26-5.994,2.474-9.238l-33.196-57.501c57.007-31.003,96-88.727,101.705-156.915H29.477
					C35.182,64.378,74.175,122.103,131.181,153.105z"/>
				<path fill="#F8FF5C" d="M222.759,160.09h11.921c1.175,0,2.127,0.952,2.127,2.127v28.098c0,1.175-0.952,2.127-2.127,2.127
					h-11.921c-1.175,0-2.127-0.952-2.127-2.127v-28.098C220.632,161.043,221.585,160.09,222.759,160.09z"/>
				<path fill="#F8FF5C" d="M222.61,142.703h12.22c1.092,0,1.978,0.886,1.978,1.978v4.132c0,1.092-0.886,1.978-1.978,1.978h-12.22
					c-1.092,0-1.978-0.886-1.978-1.978v-4.132C220.632,143.589,221.518,142.703,222.61,142.703z"/>
			</g>
			<rect x="144.336" y="189.285" fill="#FFFFFF" width="4.044" height="4.044"/>
			<rect x="161.237" y="248.246" fill="#FFFFFF" width="4.044" height="4.044"/>
			<rect x="341.649" y="310.213" fill="#FFFFFF" width="4.044" height="4.044"/>
			<rect x="258.455" y="224.717" fill="#FFFFFF" width="4.044" height="4.044"/>
			<rect x="291.521" y="191.307" fill="#FFFFFF" width="4.044" height="4.044"/>
			<rect x="266.592" y="261.086" fill="#FFFFFF" width="4.044" height="4.044"/>
			<rect x="303.391" y="245.827" fill="#FFFFFF" width="8.088" height="8.088"/>
			<rect x="161.237" y="271.49" fill="#FFFFFF" width="4.044" height="4.044"/>
			<rect x="192.606" y="211.425" fill="#FFFFFF" width="8.088" height="8.088"/>
			<rect x="244.615" y="291.463" fill="#FFFFFF" width="8.088" height="8.088"/>
			<rect x="265.874" y="321.838" fill="#FFFFFF" width="8.088" height="8.088"/>
			<rect x="133.461" y="226.739" fill="#FFFFFF" width="8.088" height="8.088"/>
			<rect x="352.891" y="163.313" fill="#FFFFFF" width="8.088" height="8.088"/>
			<rect x="110.256" y="296.267" fill="#FFFFFF" width="8.088" height="8.088"/>
		</g>
	</g>
	<path fill="#F86734" d="M228.5,457c-61.035,0-118.416-23.768-161.574-66.926C23.768,346.916,0,289.534,0,228.5
		c0-61.035,23.768-118.416,66.926-161.574C110.084,23.768,167.465,0,228.5,0c61.034,0,118.416,23.768,161.574,66.926
		C433.232,110.084,457,167.465,457,228.5c0,61.034-23.768,118.416-66.926,161.574C346.916,433.232,289.534,457,228.5,457z
		 M228.5,56.615c-94.778,0-171.885,77.107-171.885,171.885S133.722,400.385,228.5,400.385S400.385,323.278,400.385,228.5
		S323.278,56.615,228.5,56.615z"/>
	<g>
		<path fill="#FFFFFF" d="M65.672,88.72l3.851-4.367l29.668,9.767l-4.44,5.035l-6.235-2.101l-7.863,8.918l2.865,5.923l-4.439,5.035
			L65.672,88.72L65.672,88.72z M82.779,95.122l-8.872-3.024l4.111,8.423L82.779,95.122L82.779,95.122z"/>
		<path fill="#FFFFFF" d="M126.011,73.196l-21.732-6.21l10.386,14.396l-5.214,3.763L92.654,61.861l4.492-3.24l21.675,6.2
			l-10.363-14.363l5.247-3.786l16.797,23.282L126.011,73.196L126.011,73.196z"/>
		<path fill="#FFFFFF" d="M133.863,35.453l9-3.848c7.439-3.181,15.975,0.12,19.108,7.446c3.132,7.326-0.381,15.779-7.82,18.958
			l-9,3.848L133.863,35.453L133.863,35.453z M151.83,52.581c4.463-1.908,5.965-6.729,4.152-10.969
			c-1.813-4.24-6.335-6.485-10.798-4.577l-3.087,1.319l6.646,15.546L151.83,52.581z"/>
		<path fill="#FFFFFF" d="M176.668,19.861l11.107-2.198c5.316-1.052,9.48,2.081,10.406,6.762c0.723,3.65-0.759,6.374-4.077,8.35
			l12.413,10.446l-7.575,1.499l-11.661-9.77l-1.031,0.204l2.3,11.622l-6.307,1.248l-5.573-28.163L176.668,19.861z M189.235,28.998
			c1.864-0.368,3.001-1.707,2.68-3.333c-0.338-1.706-1.883-2.43-3.747-2.062l-4.046,0.802l1.067,5.394
			C185.189,29.799,189.235,28.998,189.235,28.998z"/>
		<path fill="#FFFFFF" d="M216.777,27.897c0.133-8.167,6.872-14.73,15.078-14.596c8.166,0.132,14.729,6.911,14.596,15.077
			c-0.133,8.167-6.912,14.729-15.078,14.596C223.166,42.841,216.645,36.064,216.777,27.897z M239.942,28.273
			c0.075-4.649-3.539-8.671-8.189-8.746c-4.69-0.076-8.432,3.826-8.508,8.475c-0.076,4.65,3.538,8.671,8.228,8.747
			c4.649,0.075,8.393-3.827,8.468-8.476L239.942,28.273z"/>
		<path fill="#FFFFFF" d="M266.915,17.124l6.312,1.231l-5.497,28.184l-6.312-1.231C261.418,45.308,266.915,17.124,266.915,17.124z"
			/>
		<path fill="#FFFFFF" d="M294.492,23.71l9.144,3.485c7.558,2.881,11.404,11.184,8.566,18.628
			c-2.837,7.444-11.235,11.081-18.791,8.2l-9.145-3.485l10.227-26.829L294.492,23.71z M295.513,48.507
			c4.534,1.729,8.964-0.695,10.606-5.003c1.642-4.307-0.051-9.064-4.585-10.791l-3.136-1.195l-6.021,15.794L295.513,48.507z"/>
		<path fill="#FFFFFF" d="M354.021,61.568l-4.212-3.214l3.655-4.79l9.068,6.917l-17.416,22.827l-4.856-3.704L354.021,61.568
			L354.021,61.568z"/>
		<path fill="#FFFFFF" d="M370.586,98.74l-9.566-10.266l3.608-3.363l22.82-1.255l3.749,4.024l-12.366,11.524l2.509,2.692
			l-4.083,3.805l-2.508-2.692l-4.556,4.245l-4.163-4.467L370.586,98.74L370.586,98.74z M380.467,89.532l-10.292,0.581l4.493,4.823
			L380.467,89.532z"/>
	</g>
</g>
<path fill="#3DDC84" d="M228.5,98.421c-6.7,0-12.132,5.275-12.132,11.782v14.533c0,1.256,1.018,2.275,2.275,2.275
	s2.275-1.018,2.275-2.275v-3.918c0-2.512,2.037-4.549,4.549-4.549h6.066c2.512,0,4.549,2.037,4.549,4.549v3.918
	c0,1.256,1.018,2.275,2.275,2.275c1.257,0,2.275-1.018,2.275-2.275v-14.533c0-6.507-5.431-11.782-12.132-11.782L228.5,98.421z"/>
</svg>
