<?xml version="1.0" encoding="UTF-8" standalone="no"?>
<!-- Created with Inkscape (http://www.inkscape.org/) -->

<svg
   xmlns:dc="http://purl.org/dc/elements/1.1/"
   xmlns:cc="http://creativecommons.org/ns#"
   xmlns:rdf="http://www.w3.org/1999/02/22-rdf-syntax-ns#"
   xmlns:svg="http://www.w3.org/2000/svg"
   xmlns="http://www.w3.org/2000/svg"
   xmlns:xlink="http://www.w3.org/1999/xlink"
   xmlns:sodipodi="http://sodipodi.sourceforge.net/DTD/sodipodi-0.dtd"
   xmlns:inkscape="http://www.inkscape.org/namespaces/inkscape"
   width="100"
   height="80"
   viewBox="0 0 100 80.000009"
   id="svg2"
   version="1.1"
   inkscape:version="0.92.4 (5da689c313, 2019-01-14)"
   sodipodi:docname="Discovery logo.svg">
  <title
     id="title953">Windows Vista logo</title>
  <defs
     id="defs4">
    <pattern
       y="0"
       x="0"
       height="6"
       width="6"
       patternUnits="userSpaceOnUse"
       id="EMFhbasepattern" />
    <pattern
       y="0"
       x="0"
       height="6"
       width="6"
       patternUnits="userSpaceOnUse"
       id="EMFhbasepattern-6" />
    <linearGradient
       inkscape:collect="always"
       xlink:href="#linearGradient862"
       id="linearGradient864"
       x1="-52.497032"
       y1="46.294807"
       x2="-51.728367"
       y2="321.82327"
       gradientUnits="userSpaceOnUse"
       gradientTransform="matrix(0.21227397,0,0,0.21269216,60.559951,964.39534)" />
    <linearGradient
       inkscape:collect="always"
       id="linearGradient862">
      <stop
         style="stop-color:#162940;stop-opacity:1"
         offset="0"
         id="stop858" />
      <stop
         style="stop-color:#75b3c5;stop-opacity:1"
         offset="1"
         id="stop860" />
    </linearGradient>
  </defs>
  <sodipodi:namedview
     id="base"
     pagecolor="#ffffff"
     bordercolor="#666666"
     borderopacity="1.0"
     inkscape:pageopacity="0.0"
     inkscape:pageshadow="2"
     inkscape:zoom="1"
     inkscape:cx="66.228257"
     inkscape:cy="43.791652"
     inkscape:document-units="px"
     inkscape:current-layer="layer1"
     showgrid="false"
     units="px"
     inkscape:showpageshadow="false"
     inkscape:window-width="1366"
     inkscape:window-height="705"
     inkscape:window-x="-8"
     inkscape:window-y="-8"
     inkscape:window-maximized="1"
     objecttolerance="1"
     gridtolerance="1" />
  <metadata
     id="metadata7">
    <rdf:RDF>
      <cc:Work
         rdf:about="">
        <dc:format>image/svg+xml</dc:format>
        <dc:type
           rdf:resource="http://purl.org/dc/dcmitype/StillImage" />
        <dc:title>Windows Vista logo</dc:title>
        <cc:license
           rdf:resource="http://scripts.sil.org/OFL" />
      </cc:Work>
      <cc:License
         rdf:about="http://scripts.sil.org/OFL">
        <cc:permits
           rdf:resource="http://scripts.sil.org/pub/OFL/Reproduction" />
        <cc:permits
           rdf:resource="http://scripts.sil.org/pub/OFL/Distribution" />
        <cc:permits
           rdf:resource="http://scripts.sil.org/pub/OFL/Embedding" />
        <cc:permits
           rdf:resource="http://scripts.sil.org/pub/OFL/DerivativeWorks" />
        <cc:requires
           rdf:resource="http://scripts.sil.org/pub/OFL/Notice" />
        <cc:requires
           rdf:resource="http://scripts.sil.org/pub/OFL/Attribution" />
        <cc:requires
           rdf:resource="http://scripts.sil.org/pub/OFL/ShareAlike" />
        <cc:requires
           rdf:resource="http://scripts.sil.org/pub/OFL/DerivativeRenaming" />
        <cc:requires
           rdf:resource="http://scripts.sil.org/pub/OFL/BundlingWhenSelling" />
      </cc:License>
    </rdf:RDF>
  </metadata>
  <g
     inkscape:label="Capa 1"
     inkscape:groupmode="layer"
     id="layer1"
     transform="translate(0,-972.3622)">
    <path
       style="opacity:0.8;fill:url(#linearGradient864);fill-opacity:1;stroke-width:0;stroke-miterlimit:4;stroke-dasharray:none"
       d="m 49.416142,974.24191 a 29.293808,29.351518 0 0 0 -29.25145,29.37969 29.293808,29.351518 0 0 0 29.307906,29.3234 29.293808,29.351518 0 0 0 29.279677,-29.3516 v -0.056 a 29.293808,29.351518 0 0 0 -29.336133,-29.295 z m -0.01257,1.81907 a 27.489479,27.543634 0 0 1 27.528859,27.49052 v 0.053 a 27.489479,27.543634 0 0 1 -27.47617,27.5438 27.489479,27.543634 0 0 1 -27.502758,-27.5176 27.489479,27.543634 0 0 1 27.450073,-27.56989 z"
       id="path817"
       inkscape:connector-curvature="0" />
    <path
       inkscape:connector-curvature="0"
       d="m 69.760083,991.08422 c -7.722895,3.19296 -11.436144,1.39796 -14.782913,-0.85429 l -3.809921,13.21517 c 3.343482,2.2652 7.380001,4.1276 14.789487,0.8105 z"
       style="fill:#91c300;stroke-width:0.23405449"
       id="path2" />
    <path
       inkscape:connector-curvature="0"
       style="fill:#00b4f1;stroke-width:0.23405449"
       d="m 44.653522,1017.6506 c -3.354212,-2.2575 -7.000565,-4.1142 -14.741731,-0.9133 l 3.790492,-13.24 c 7.742808,-3.2014 11.462438,-1.3898 14.813363,0.8815 l -3.862124,13.2715 z"
       id="path4" />
    <path
       inkscape:connector-curvature="0"
       d="m 49.159285,1001.9888 c -2.019372,-1.3598 -4.191194,-2.62911 -7.275596,-2.65251 -2.035032,-0.0155 -4.457523,0.56244 -7.532838,1.83401 l 3.811178,-13.20576 c 7.737589,-3.19935 11.454125,-1.38869 14.802731,0.88096 z"
       style="fill:#f8682c;stroke-width:0.23405449"
       id="path6" />
    <path
       inkscape:connector-curvature="0"
       d="m 50.52477,1005.6527 c 3.350055,2.2556 7.071231,4.0522 14.802344,0.8566 l -3.810694,13.1619 c -7.732466,3.1981 -11.44591,1.387 -14.792484,-0.8823 z"
       style="fill:#ffc300;stroke-width:0.23405449"
       id="path8" />
    <path
       style="fill:#000000;fill-rule:nonzero;stroke:none;stroke-width:0.028831"
       d="m 36.129704,1038.471 v 5.0632 h -0.03383 c -0.548031,-0.8852 -1.415465,-1.3277 -2.602107,-1.3277 -1.203368,0 -2.166796,0.4077 -2.890092,1.2237 -0.723296,0.8159 -1.085042,1.9063 -1.085042,3.2713 0,1.2798 0.339125,2.2875 1.017371,3.0235 0.649634,0.7146 1.50856,1.0718 2.576393,1.0718 1.344991,0 2.339548,-0.5307 2.983477,-1.5918 h 0.03383 v 1.3919 h 1.39004 v -12.1259 z m -17.859968,0.1521 c -0.248348,0 -0.461895,0.081 -0.639675,0.2439 -0.178166,0.1628 -0.2672,0.364 -0.2672,0.6039 0,0.2505 0.08893,0.4558 0.2672,0.6159 0.17778,0.16 0.391327,0.24 0.639675,0.24 0.254633,0 0.470404,-0.083 0.648474,-0.2481 0.178164,-0.1651 0.267199,-0.3679 0.267199,-0.6078 0,-0.2399 -0.08893,-0.4411 -0.267199,-0.6039 -0.17807,-0.1627 -0.393841,-0.2439 -0.648474,-0.2439 z m -17.42745825,0.5039 3.55113175,11.4699 h 1.6529863 l 2.5173265,-8.4064 c 0.1131057,-0.3679 0.1892828,-0.7494 0.2287252,-1.144 h 0.033832 c 0.017406,0.4108 0.079268,0.7974 0.1863824,1.16 l 2.5007971,8.3904 h 1.669517 l 3.432805,-11.4699 h -1.542587 l -2.483588,8.8304 c -0.129926,0.4585 -0.206104,0.8236 -0.228725,1.0959 h -0.03383 c -0.04544,-0.3842 -0.113009,-0.7388 -0.203204,-1.0642 L 9.5553816,1039.127 H 8.1824498 l -2.695492,8.7983 c -0.1469408,0.4852 -0.2314317,0.8693 -0.2540528,1.1519 H 5.199071 c -0.033834,-0.4055 -0.1042118,-0.7893 -0.2118072,-1.1519 l -2.5849966,-8.7983 z m 67.51374825,0 4.441477,11.4699 h 0.627108 l 4.720954,-11.4699 h -0.898273 l -3.7379,9.2223 c -0.175265,0.4639 -0.290884,0.8318 -0.347341,1.1037 h -0.03383 c -0.06186,-0.3414 -0.166661,-0.7039 -0.313699,-1.0878 l -3.51749,-9.2382 z m 10.971638,0 c -0.164149,0 -0.312346,0.055 -0.445366,0.1636 -0.13273,0.1096 -0.198949,0.2522 -0.198949,0.4282 0,0.1813 0.06477,0.3306 0.194986,0.448 0.129926,0.1171 0.279767,0.1758 0.449329,0.1758 0.180684,0 0.335938,-0.061 0.465767,-0.1839 0.130218,-0.1226 0.195277,-0.2691 0.195277,-0.4399 0,-0.1813 -0.06671,-0.3252 -0.19924,-0.4318 -0.13302,-0.1066 -0.286825,-0.16 -0.461804,-0.16 z m 9.707082,0.9037 c -0.124224,0.043 -0.25444,0.083 -0.389973,0.1201 -0.135534,0.043 -0.265461,0.085 -0.389876,0.128 v 2.1274 h -1.559699 v 0.672 h 1.559699 v 5.5031 c 0,1.4502 0.641318,2.1757 1.92415,2.1757 0.355944,0 0.737313,-0.091 1.144397,-0.272 v -0.6881 c -0.373152,0.1974 -0.720782,0.296 -1.042506,0.296 -0.452423,0 -0.772986,-0.1265 -0.962172,-0.38 -0.189282,-0.2531 -0.28402,-0.6624 -0.28402,-1.2279 v -5.4068 h 2.288698 v -0.672 h -2.288698 z m -63.729642,2.1758 c -1.249093,0 -2.1986,0.5197 -2.848233,1.5596 h -0.03383 v -1.3599 h -1.390137 v 8.1907 h 1.390137 v -4.6714 c 0,-0.7517 0.227177,-1.3729 0.68221,-1.8634 0.454646,-0.4905 1.029552,-0.7359 1.72491,-0.7359 1.344798,0 2.016954,0.8666 2.016954,2.5993 v 4.6714 h 1.390427 v -5.0151 c 0,-1.0772 -0.250088,-1.909 -0.75046,-2.4957 -0.500082,-0.5863 -1.227439,-0.8796 -2.182167,-0.8796 z m 18.166995,0 c -1.316472,0 -2.367485,0.3624 -3.153038,1.0876 -0.847422,0.7784 -1.271037,1.8797 -1.271037,3.3034 0,1.2478 0.372572,2.2531 1.118683,3.0155 0.762738,0.7892 1.796833,1.1838 3.101899,1.1838 1.322466,0 2.373479,-0.3946 3.153038,-1.1838 0.78014,-0.789 1.170016,-1.8369 1.170016,-3.1433 0,-1.3281 -0.363388,-2.3706 -1.089584,-3.1276 -0.725907,-0.7572 -1.736028,-1.1356 -3.029977,-1.1356 z m 19.902926,0 c -0.898561,0 -1.633265,0.2251 -2.203917,0.6758 -0.570555,0.4506 -0.856026,1.0171 -0.856026,1.6997 0,0.6079 0.183579,1.1012 0.550931,1.4796 0.305095,0.32 0.822288,0.6293 1.550998,0.928 0.706476,0.2932 1.18123,0.5438 1.424069,0.7518 0.242934,0.2079 0.364257,0.472 0.364257,0.7919 0,0.7622 -0.55093,1.1437 -1.652696,1.1437 -0.824995,0 -1.576519,-0.2614 -2.254766,-0.7838 v 1.4078 c 0.610287,0.3305 1.328266,0.4958 2.153164,0.4958 1.005868,0 1.799638,-0.2401 2.381697,-0.7198 0.53121,-0.4427 0.79667,-0.9998 0.79667,-1.6717 0,-0.608 -0.211711,-1.1092 -0.635615,-1.5037 -0.327717,-0.3094 -0.86144,-0.6108 -1.601943,-0.9038 -0.661041,-0.2667 -1.096353,-0.4933 -1.305356,-0.68 -0.231722,-0.2029 -0.347341,-0.4853 -0.347341,-0.8479 0,-0.336 0.138433,-0.6104 0.41501,-0.8237 0.277157,-0.2134 0.64712,-0.32 1.11066,-0.32 0.740116,0 1.395549,0.1947 1.966104,0.584 v -1.3199 c -0.54774,-0.2559 -1.166825,-0.3838 -1.8559,-0.3838 z m 20.844221,0 c -0.790966,0 -1.456259,0.2051 -1.996072,0.6156 -0.539718,0.4108 -0.809528,0.9493 -0.809528,1.6158 0,0.5226 0.168111,0.9665 0.504433,1.3318 0.336223,0.3652 0.919344,0.7185 1.750238,1.0599 0.672542,0.2717 1.158414,0.5357 1.457806,0.792 0.299488,0.2558 0.449232,0.5651 0.449232,0.9275 0,1.0507 -0.68076,1.5759 -2.042863,1.5759 -0.304902,0 -0.66655,-0.07 -1.084654,-0.208 -0.418201,-0.1387 -0.774146,-0.328 -1.06793,-0.568 v 0.8878 c 0.559245,0.3734 1.257117,0.56 2.093518,0.56 0.90968,0 1.623309,-0.212 2.13992,-0.6359 0.51729,-0.4241 0.775886,-0.9611 0.775886,-1.6118 0,-0.5437 -0.169561,-0.9796 -0.508685,-1.3077 -0.339123,-0.3278 -0.960817,-0.6839 -1.864794,-1.0678 -0.75162,-0.3145 -1.237395,-0.5932 -1.457709,-0.8358 -0.220412,-0.2428 -0.330617,-0.5586 -0.330617,-0.9479 0,-0.4479 0.175266,-0.8119 0.525506,-1.0918 0.350241,-0.2798 0.810688,-0.4199 1.381533,-0.4199 0.689365,0 1.356204,0.1974 2.000424,0.592 v -0.832 c -0.53121,-0.2881 -1.169726,-0.4317 -1.915644,-0.4317 z m 11.309022,0 c -0.485871,0 -1.004223,0.085 -1.555058,0.2558 -0.550931,0.1708 -0.987693,0.3761 -1.309705,0.6159 v 0.8877 c 0.904071,-0.7251 1.833761,-1.0877 2.788877,-1.0877 1.401253,0 2.101735,0.8797 2.101735,2.6396 l -2.669778,0.3761 c -2.006126,0.2983 -3.008901,1.1622 -3.008901,2.5911 0,0.6668 0.240035,1.2187 0.720493,1.6559 0.480071,0.4371 1.132604,0.6559 1.957889,0.6559 0.644218,0 1.230531,-0.1666 1.758648,-0.5 0.528599,-0.3332 0.930754,-0.7798 1.20791,-1.3398 h 0.03383 v 1.6399 h 0.779757 v -5.327 c 0,-0.9971 -0.244289,-1.7572 -0.732967,-2.2796 -0.488965,-0.5226 -1.17978,-0.7838 -2.072638,-0.7838 z m -77.970421,0.1997 v 8.1905 h 1.389751 v -8.1905 z m 30.262441,0 2.619218,8.1907 h 1.389846 l 1.941068,-5.8789 c 0.101895,-0.3042 0.161248,-0.5492 0.17807,-0.7358 h 0.03383 c 0.02803,0.2878 0.07347,0.5384 0.13534,0.7516 l 1.788617,5.8631 h 1.440889 l 2.602107,-8.1907 h -1.372929 l -1.771505,6.1751 c -0.07928,0.2826 -0.124417,0.5279 -0.135825,0.7359 h -0.06767 c -0.02224,-0.2933 -0.06186,-0.5387 -0.118811,-0.7359 l -1.805147,-6.1751 h -1.271611 l -1.99153,6.1429 c -0.09087,0.2722 -0.144137,0.5226 -0.161055,0.7518 h -0.06863 c -0.02224,-0.277 -0.06186,-0.5225 -0.118422,-0.7358 l -1.788328,-6.1589 z m 31.125717,0 v 8.1905 h 0.779563 v -8.1905 z m -45.274271,0.92 c 0.717593,0 1.311059,0.2347 1.780013,0.7037 0.452132,0.4481 0.677957,1 0.677957,1.6559 v 1.2075 c 0,0.7893 -0.231529,1.4453 -0.695068,1.9678 -0.491575,0.5439 -1.132991,0.8159 -1.923957,0.8159 -0.74582,0 -1.350405,-0.2507 -1.813944,-0.7518 -0.502983,-0.5442 -0.754425,-1.309 -0.754425,-2.2956 0,-1.0347 0.243129,-1.8438 0.72929,-2.4278 0.485485,-0.5837 1.152614,-0.8756 2.000134,-0.8756 z m 9.698763,0 c 0.875748,0 1.5568,0.2639 2.04267,0.7919 0.502886,0.5492 0.754425,1.349 0.754425,2.3995 0,1.0023 -0.234622,1.7757 -0.703286,2.3196 -0.480457,0.56 -1.178329,0.8398 -2.093809,0.8398 -0.88145,0 -1.585026,-0.2761 -2.110531,-0.8277 -0.525217,-0.5519 -0.788164,-1.3186 -0.788164,-2.2996 0,-1.0451 0.274064,-1.8529 0.822095,-2.4238 0.519803,-0.5331 1.21197,-0.7997 2.0766,-0.7997 z m 54.18362,2.8634 v 0.8 c 0,0.9224 -0.276964,1.6757 -0.830699,2.2594 -0.553734,0.584 -1.248803,0.876 -2.084915,0.876 -0.610576,0 -1.086394,-0.1573 -1.428321,-0.472 -0.341734,-0.3145 -0.512649,-0.7146 -0.512649,-1.1997 0,-0.6187 0.183772,-1.0653 0.550931,-1.3399 0.367062,-0.2744 1.005867,-0.4732 1.915257,-0.5958 z"
       id="path13321"
       inkscape:connector-curvature="0" />
  </g>
</svg>
