<?xml version="1.0" encoding="UTF-8"?>
<!-- Created with Inkscape (http://www.inkscape.org/) -->
<svg width="510.47" height="590.2" version="1.1" viewBox="0 0 510.47 590.2" xmlns="http://www.w3.org/2000/svg">
 <path d="m384.88 170.63-15.223 0.26757v143.63l15.801-0.3125c25-0.4962 49.73 2.0792 71.668 8.627l19.926 5.9473v-138.93l-8.8613-4.1992c-25.96-12.297-55.21-15.523-83.311-15.029z" color="#000000" fill="#ff0" style="-inkscape-stroke:none"/>
 <path d="m369.65 171.62-17.17 1.8672c-27.757 3.0204-52.711 12.1-76.086 22.449v140.91l5.3105-1.9375c23.081-8.4203 49.191-14.707 74.48-18.049l13.465-1.7793z" color="#000000" fill="#00f" style="-inkscape-stroke:none"/>
 <path d="m369.65 31.445-17.32 2.0547c-28.047 3.3276-52.83 12.982-75.936 22.129v141.37l6.1074-2.6191c23.587-10.116 47.784-17.716 73.457-20.725l13.691-1.6035z" color="#000000" fill="#f00" style="-inkscape-stroke:none"/>
 <path d="m395.06 29.834c-3.6055 0.03152-7.2054 0.15133-10.789 0.35352l-14.621 0.82617v140.28l15.787-0.29883c26.383-0.49984 49.34 1.9178 70.684 9.9043l20.924 7.8301v-139l-8.3613-4.3359c-22.629-11.735-48.378-15.781-73.623-15.561z" color="#000000" fill="#008000" style="-inkscape-stroke:none"/>
 <path d="m271.19 25.763c0.468 16.25 0 49.271 0 49.271l-45.417 18.646v-45.885c14.74-8.6459 29.74-15.781 45.417-22.031"/>
 <path d="m30.827 44.148-17.135 6.8751v-14.375l17.135-7.5v15"/>
 <path d="m75.463 55.294-23.542 9.0104v-17.136l23.542-9.0104v17.136"/>
 <path d="m219.21 79.825-42.76 16.875v-36.042l42.76-16.875v36.042"/>
 <path d="m168.22 75.658-38.177 15.052v-27.396l38.177-15.052v27.396"/>
 <path d="m29.317 91.544-14.062 6.0416v-13.281l14.062-5.9896v13.229" fill="#f00"/>
 <path d="m165.93 124.56-32.24 12.917v-24.896l32.24-12.865v24.844" fill="#f00"/>
 <path d="m118.12 119.2-25.729 9.6354v-18.021l25.729-10.26v18.646" fill="#f00"/>
 <path d="m73.796 154.36-18.958 7.1353v-15.885l18.958-7.2396v15.99" fill="#f00"/>
 <path d="m507.23 28.784v345.26c-95.781-55.26-208.02-14.636-230.83-7.1355v-46.562c24.271-8.8543 51.354-15.365 77.76-18.854v-112.6c-27.76 3.0208-53.125 12.76-77.76 24.01v-32.76c24.531-10.521 50.208-18.646 77.76-21.875v-109.38c-27.656 3.2812-52.969 13.594-77.76 23.386v-48.021c15.156-8.4895 131.3-52.604 230.83 4.5313zm-122.08 16.875v109.84c27.5-0.521 52.604 1.9792 76.406 10.886v-107.24c-22.396-11.614-49.635-15-76.406-13.49zm0 140.47v112.6c26.25-0.521 52.5 2.1355 76.406 9.2708v-108.33c-22.76-10.781-49.74-14.01-76.406-13.542"/>
 <path d="m29.317 239.93-14.062 5.625v-12.865l14.062-6.0417v13.281" fill="#00f"/>
 <path d="m29.317 289.72-14.062 5.9896v-12.864l14.062-6.4063v13.281" fill="#00f"/>
 <path d="m216.4 324.25-35.833 14.375v-30l35.833-14.427v30.052" fill="#00f"/>
 <path d="m271.19 367.79v1.1973c-15.417 5.5209-31.823 12.76-45.417 19.167v-45.885l45.417-19.271v44.792"/>
 <path d="m119.84 344.62v20.417l-30.625 12.396v-20.417l30.625-12.396"/>
 <path d="m271.19 171.8-45.417 19.271v-42.656l45.417-18.906v42.292"/>
 <path d="m29.317 140.87-14.062 5.9896v-13.229l14.062-6.0417v13.281" fill="#f00"/>
 <path d="m30.827 190.5-17.135 6.8751v-14.375l17.135-7.5v15"/>
 <path d="m30.827 339.36-17.135 6.8749v-14.375l17.135-7.5v15"/>
 <path d="m73.796 104.83-18.958 7.1354v-15.885l18.958-7.2396v15.99" fill="#f00"/>
 <path d="m73.796 253.68-18.958 7.1354v-15.885l18.958-7.2396v15.99" fill="#00f"/>
 <path d="m73.796 303-18.958 7.0834v-15.885l18.958-7.2396v16.042" fill="#00f"/>
 <path d="m75.463 203.52-23.542 9.0104v-17.136l23.542-9.0104v17.136"/>
 <path d="m75.463 352.53-23.542 8.9582v-17.135l23.542-8.9584v17.136"/>
 <path d="m119.84 197.53v20.364l-30.625 12.396v-20.365l30.625-12.396"/>
 <path d="m119.84 49.304v20.364l-30.625 12.396v-20.417l30.625-12.344"/>
 <path d="m118.12 168.11-25.729 9.6353v-18.021l25.729-10.26v18.646" fill="#f00"/>
 <path d="m118.12 267.17-25.729 9.6876v-18.021l25.729-10.26v18.594" fill="#00f"/>
 <path d="m118.12 315.5-25.729 9.5834v-17.969l25.729-10.26v18.646" fill="#00f"/>
 <path d="m168.22 223.68-38.177 15v-27.396l38.177-15v27.396"/>
 <path d="m168.22 370.5-38.177 15.052v-27.396l38.177-15.052v27.396"/>
 <path d="m165.93 173.37-32.24 12.864v-24.844l32.24-12.917v24.896" fill="#f00"/>
 <path d="m165.93 272.95-32.24 12.865v-24.896l32.24-12.864v24.896" fill="#00f"/>
 <path d="m165.93 320.61-32.24 12.917v-24.896l32.24-12.917v24.896" fill="#00f"/>
 <path d="m219.21 228.05-42.76 16.875v-36.042l42.76-16.875v36.042"/>
 <path d="m219.21 375.03-42.76 16.875v-36.042l42.76-16.875v36.042"/>
 <path d="m216.4 276.18-35.833 14.427v-30.052l35.833-14.375v30" fill="#00f"/>
 <path d="m216.4 175.4-35.833 14.375v-30.052l35.833-14.375v30.052" fill="#f00"/>
 <path d="m216.4 127.95-35.833 14.375v-30l35.833-14.375v30" fill="#f00"/>
 <path d="m271.19 123.52-45.417 19.271v-42.656l45.417-18.906v42.292"/>
 <path d="m271.19 316.65-45.417 19.271v-42.656l45.417-18.906v42.292"/>
 <path d="m271.19 268.37-45.417 19.271v-42.656l45.417-18.906v42.292"/>
 <path d="m271.19 220.09-45.417 19.271v-42.656l45.417-18.906v42.292"/>
 <path d="m13.706 545.03c-1.7133-5.1009-4.9061-14.68-7.3592-19.235-1.4407-2.7256-3.5824-3.6601-6.3468-3.9716v-1.9859h23.479v1.9859l-1.4406 0.11662c-2.9593 0.38949-4.7894 0.38949-4.7894 4.1663 0 0.93399 1.1681 4.0496 1.4407 4.984l13.395 37.964 10.28-29.32c-1.5575-4.4778-2.9982-8.8778-4.9061-13.122-1.7132-3.8548-4.1274-4.7893-7.9433-4.7893v-1.9858h25.582v1.9858c-2.6088 0-7.3981 0-7.3981 3.2317 0 1.5576 0.77848 3.6213 0.97383 4.3611l14.252 39.95 11.604-34.109c1.7133-4.984 2.2195-9.4616 1.3628-11.059-1.246-2.1805-3.9327-2.1805-6.0353-2.3752v-1.9858h18.962v1.9858c-2.2972 0.19437-4.322 1.0513-5.9574 2.9203-0.85623 1.4408-1.5186 2.9983-1.9858 4.5946l-19.663 60.859h-1.246l-15.419-44.35-14.835 44.35h-1.246l-14.758-45.168" stroke-width=".7476"/>
 <path d="m98.319 581.52c0 2.6088 1.246 5.529 8.1376 5.529v1.6743h-24.725v-1.6743c6.853 0 8.0988-2.9202 8.0988-5.529v-45.284c0-2.6088-1.246-5.4902-8.0988-5.4902v-1.7133h24.725v1.7133c-6.892 0-8.1376 2.8814-8.1376 5.4902v45.284" stroke-width=".7476"/>
 <path d="m155.75 590.01h-1.3628l-40.067-49.684v41.196c0 2.6088 1.3238 5.529 8.7223 5.529v1.6744h-21.455v-1.6744c7.3982 0 8.7612-2.9202 8.7612-5.529v-45.791l-0.73938-0.93397c-2.8035-3.154-3.6212-3.9717-8.021-4.0496v-1.7133h15.419l34.732 43.377v-36.173c0-2.6088-1.3239-5.4902-8.7223-5.4902v-1.7133h21.455v1.7133c-7.3981 0-8.7223 2.8813-8.7223 5.4902v53.773" stroke-width=".7476"/>
 <path d="m160.11 588.72v-1.6743c6.191 0 7.476-2.9202 7.476-5.529v-45.284c0-2.6088-1.285-5.4902-7.476-5.4902v-1.7133h21.883c21.728 0 34.888 9.7345 34.888 30.021 0 18.339-11.447 29.67-34.187 29.67zm16.121-8.0988c0 3.3486 2.2193 4.3221 4.0883 4.439 17.288 0.77847 27.295-9.1118 27.295-25.894 0-17.678-10.825-26.789-26.517-26.789-4.0885 0-4.8672 0.27213-4.8672 4.5947v43.649" stroke-width=".7476"/>
 <path d="m275.44 558.9c0 17.405-10.747 31.111-27.723 31.111-14.952 0-27.841-11.993-27.841-31.111 0-17.95 11.292-31.501 27.841-31.111 14.68-0.73938 27.723 11.915 27.723 31.111zm-45.868 0c0 18.573 8.1376 28.658 18.145 27.88 15.108-1.285 18.573-18.223 18.145-27.88 0-14.173-4.984-28.074-18.145-27.88-12.655 0.89511-18.145 10.63-18.145 27.88" stroke-width=".7476"/>
 <path d="m278.83 550.88c-1.4795-4.4389-4.2052-12.732-6.3857-16.704-1.246-2.3363-3.076-3.154-5.4513-3.4266v-1.7133h20.326v1.7133l-1.246 0.08c-2.57 0.38951-4.1663 0.38951-4.1663 3.6212 0 0.81742 1.0123 3.5044 1.246 4.322l11.642 32.942 8.8778-25.466c-1.3239-3.8547-2.5698-7.6315-4.2441-11.331-1.4797-3.3487-3.5822-4.1663-6.892-4.1663v-1.7134h22.195v1.7134c-2.2585 0-6.4247 0-6.4247 2.8035 0 1.3628 0.7005 3.1538 0.85629 3.7769l12.343 34.654 10.046-29.592c1.5185-4.3221 1.9468-8.2162 1.168-9.5783-1.0902-1.869-3.3875-1.869-5.2176-2.0637v-1.7134h16.432v1.7134c-1.9858 0.19439-3.738 0.89511-5.1398 2.5309-0.73938 1.246-1.3239 2.6088-1.7522 3.9716l-17.015 52.761h-1.0903l-13.355-38.431-12.85 38.431h-1.0903l-12.811-39.132" stroke-width=".7476"/>
 <path d="m341.1 570.61h1.83c2.6088 8.3716 6.5806 15.964 15.38 15.964 6.6973 0 11.292-6.3079 9.3839-13.355-3.6212-13.239-27.88-11.253-27.88-29.515 0-8.9166 8.3328-15.925 16.509-15.925 8.8 0 12.771 6.6584 14.758 0h1.7522v19.196h-2.0637c-1.9079-8.3716-5.568-15.497-13.316-15.497-4.984 0-10.513 3.8548-10.513 9.5394 0 5.2176 5.2566 8.255 8.8001 10.591 11.331 7.398 20.753 8.6049 20.753 21.883 0 8.1384-6.23 16.509-17.522 16.509-8.6438 0-15.185-6.5805-16.003 0h-1.869v-19.391" stroke-width=".7476"/>
 <path d="m452.27 590.01h-1.5682l-46.108-57.175v47.407c0 3.0022 1.5234 6.3626 10.037 6.3626v1.9268h-24.689v-1.9268c8.5136 0 10.082-3.3605 10.082-6.3626v-52.694l-0.8509-1.0748c-3.2262-3.6295-4.1672-4.5705-9.2303-4.6601v-1.9716h17.744l39.969 49.916v-41.626c0-3.0022-1.5235-6.3179-10.037-6.3179v-1.9716h24.689v1.9716c-8.5135 0-10.037 3.3158-10.037 6.3179v61.88" stroke-width=".86032"/>
 <path d="m88.379 496.02c0 3.5937 1.7188 7.5 9.9478 7.5v2.3437h-31.458v-2.3437c8.2812 0 10-3.9063 10-7.5v-60.104l-29.01 69.948h-1.5626l-28.437-67.136v57.292c0 3.5937 1.7186 7.5 10.99 7.5v2.3437h-26.927v-2.3437c9.2708 0 10.99-3.9063 10.99-7.5v-61.719c0-3.5416-1.7187-7.5-10.781-7.5v-2.3438h22.448l26.146 62.083 25-62.083h22.5v2.3438c-8.2292 0-9.9479 3.9584-9.9479 7.5l0.10701 61.719"/>
 <path d="m114.73 497.43c0 3.0728 1.4584 6.4583 9.5313 6.4583v1.9792h-28.958v-1.9792c8.073 0 9.5314-3.3855 9.5314-6.4583v-52.969c0-3.0729-1.4584-6.4584-9.5314-6.4584v-2.0312h28.958v2.0312c-8.0729 0-9.5313 3.3855-9.5313 6.4584v52.969"/>
 <path d="m184.58 444.46c0-3.0729-1.4061-6.4584-8.0728-6.4584v-2.0312h25.104c15.781 0 25.26 6.1459 25.26 18.49 0 11.198-7.7084 16.354-14.375 17.448l14.271 26.042c2.552 3.4896 4.7396 5.625 9.0624 5.9375v1.9792h-15.312l-18.438-32.656-7.8124 0.364v23.854c0 3.0728 1.4583 6.4583 8.3854 6.4583v1.9792h-26.146v-1.9792c6.6667 0 8.0728-3.3855 8.0728-6.4583zm9.6876 25.208c13.802-0.52099 22.24-3.6979 22.24-15.104 0-10.417-6.6666-14.583-15.208-14.583-6.1458 0-7.0312 0-7.0312 5v24.688"/>
 <path d="m294.06 470.92c0 20.417-12.344 36.406-31.823 36.406-17.083 0-31.823-14.01-31.823-36.406 0-20.99 12.917-36.823 31.823-36.406 16.823-0.83301 31.823 13.958 31.823 36.406zm-52.604 0c0 21.771 9.3229 33.594 20.781 32.656 17.344-1.5104 21.302-21.354 20.833-32.656 0-16.562-5.729-32.812-20.833-32.604-14.479 1.0413-20.781 12.448-20.781 32.604"/>
 <path d="m405.77 470.92c0 20.417-12.344 36.406-31.771 36.406-17.135 0-31.875-14.01-31.875-36.406 0-20.99 12.917-36.823 31.875-36.406 16.823-0.83301 31.771 13.958 31.771 36.406zm-52.552 0c0 21.771 9.3229 33.594 20.781 32.656 17.292-1.5104 21.25-21.354 20.781-32.656 0-16.562-5.7292-32.812-20.781-32.604-14.479 1.0413-20.781 12.448-20.781 32.604"/>
 <path d="m402.13 505.87v-1.9792c7.0833 0 8.5417-3.3855 8.5417-6.4583v-52.969c0-3.0729-1.4584-6.4584-8.5417-6.4584v-2.0312h51.25l1.3541 15.104h-2.2916c-1.3027-11.615-8.0729-10.729-14.844-10.729h-12.865c-3.3853 0-4.1667 1.5624-4.1667 4.1145v22.656h12.865c6.4583 0 12.031-1.8751 12.031-10.104h2.0312v24.687h-2.0312c0-8.2292-5.5729-10.26-12.031-10.26h-12.865v25.99c0 3.0728 1.4584 6.4583 8.75 6.4583v1.9792h-27.187"/>
 <path d="m496.29 505.87h-26.146v-1.9792c6.875 0 8.2813-3.3855 8.2813-6.4583v-56.979h-6.7709c-6.9791 0-11.302 0-13.385 13.49h-2.2396l1.9271-17.969h50.521l1.8751 17.969h-2.2396c-2.0834-13.49-6.3542-13.49-13.333-13.49h-6.7708v56.979c0 3.0728 1.4063 6.4583 8.2812 6.4583v1.9792"/>
 <path d="m153.07 507.33c-18.177 0-31.979-13.177-31.979-36.302 0-20.99 13.073-36.51 31.771-36.51 12.708 0 16.042 7.5 18.75 0.107h1.927l2.5522 23.75h-2.2396c-2.7084-11.615-9.4792-19.531-20.052-19.531-15.364 0-21.927 14.062-21.927 33.073 0 14.74 6.7708 30.677 22.031 30.677 17.656 0 21.198-12.344 22.604-16.771h2.0312c-2.8125 14.271-13.073 21.51-25.469 21.51"/>
 <path d="m297.7 484.56h2.1875c3.0208 9.8437 7.6562 18.75 18.021 18.75 7.8646 0 13.229-7.3959 10.99-15.677-4.2187-15.521-32.656-13.177-32.656-34.636 0-10.469 9.7396-18.698 19.323-18.698 10.313 0 15 7.8125 17.344 0h2.0833v22.552h-2.4479c-2.2396-9.8437-6.5625-18.229-15.625-18.229-5.8333 0-12.344 4.5312-12.344 11.198 0 6.1458 6.1459 9.7396 10.365 12.5 13.229 8.6458 24.323 10.052 24.323 25.677 0 9.5314-7.3437 19.323-20.573 19.323-10.156 0-17.812-7.7083-18.802 0h-2.1875v-22.76"/>
 <path d="m496.65 588.53h-25.695v-1.9451c6.7564 0 8.1385-3.3271 8.1385-6.3469v-55.996h-6.6541c-6.8587 0-11.107 0-13.154 13.257h-2.201l1.8939-17.659h49.649l1.8428 17.659h-2.201c-2.0474-13.257-6.2446-13.257-13.103-13.257h-6.654v55.996c0 3.0198 1.3821 6.3469 8.1384 6.3469v1.9451" stroke-width=".98275"/>
</svg>
